<svg xmlns="http://www.w3.org/2000/svg" viewBox="0 0 417.1 402.3"><defs><style>.cls-1{fill:#455a64;}.cls-2{fill:#263238;}.cls-3{fill:#ffc727;}.cls-12,.cls-4{opacity:0.1;}.cls-5{fill:#dbdbdb;opacity:0.6;}.cls-6{fill:#fff;}.cls-7{fill:#c7c7c7;}.cls-8{fill:#37474f;}.cls-9{fill:#ebebeb;}.cls-10{fill:#eb9481;}.cls-11{fill:#a6a6a6;}.cls-13{fill:#ff9abb;}</style></defs><g id="Table"><rect class="cls-1" x="289.59" y="254.93" width="126.89" height="18.01"/><rect class="cls-1" x="292.62" y="272.94" width="120.84" height="5.85"/><rect class="cls-2" x="292.62" y="272.94" width="120.84" height="1.94"/><polygon class="cls-1" points="293.81 402.3 288.97 402.3 303.04 278.79 315.37 278.79 293.81 402.3"/><polygon class="cls-2" points="315.37 278.79 313.92 287.06 302.1 287.06 303.04 278.79 315.37 278.79"/><polygon class="cls-1" points="412.26 402.3 417.1 402.3 403.03 278.79 390.7 278.79 412.26 402.3"/><polygon class="cls-2" points="390.7 278.79 392.15 287.06 403.97 287.06 403.03 278.79 390.7 278.79"/></g><g id="Plant"><path class="cls-3" d="M384.14,327.92a60.49,60.49,0,0,0-1.93,10.89c.1.18.08.86,0,.67,0,.6-.93.49-.93-.1,0-.38,0-.77,0-1.14-2.13-2.64-5.22-4.32-7.72-6.62a14.34,14.34,0,0,1-4.23-6.73c-2.08-7.14-.13-14.71-2.63-21.83-2.14-6.15-6-11.49-9.26-17.05-3.44-5.89-6-12.08-6.24-19-.2-5.28.43-12.31,4.45-16.27,4.26-4.19,9.54-1.05,12.81,2.69,9.46,10.86,13.84,24.58,15.61,38.62,1,7.76,2,15.57,1.75,23.41A63.56,63.56,0,0,1,384.14,327.92Z"/><path class="cls-2" d="M382.25,341.66a133.55,133.55,0,0,0-.26-22,.1.1,0,0,0,0-.08c.12-5.94.59-11.87.36-17.82a105.35,105.35,0,0,0-2.62-19.12c0-.07-.13-.05-.12,0a123.7,123.7,0,0,1,2.07,18.7c.12,3.36.1,6.72-.08,10.08-.05,1.09-.16,2.19-.23,3.29h0a117.69,117.69,0,0,0-17.69-46.82c-.13-.19-.47,0-.35.21a122.06,122.06,0,0,1,14.4,34.72c-4.55-8.43-11.42-15.36-16.52-23.46,0-.05-.1,0-.07,0,4.58,9,12.14,16.13,17,25,.83,3.62,1.52,7.27,2,10.95a121.16,121.16,0,0,1,1.09,15.22c-2.77-5.18-5.64-10.14-7.91-15.62-.06-.14-.27,0-.22.1,1.93,5.69,4.52,11.82,8.15,16.68,0,3.6-.09,7.2-.3,10.8-.57,9.6-2.21,19.08-3,28.65a.22.22,0,0,0,.44.05A219.79,219.79,0,0,0,382.25,341.66Z"/><path class="cls-2" d="M372.05,267.59c0-.07-.13,0-.1.05,1.75,4.85,2.74,9.77,4,14.74a.18.18,0,0,0,.36-.06A52.51,52.51,0,0,0,372.05,267.59Z"/><path class="cls-3" d="M416.6,287.92a72.86,72.86,0,0,1-4,8.29c-3.16,5.74-6.46,11-7.05,17.68a41.17,41.17,0,0,1-1.27,8.85,26.66,26.66,0,0,1-3.53,6.93c-3.43,5-7.7,9.28-10.88,14.46a61,61,0,0,0-7.22,17.42c-.08.34-.61.25-.53-.09a.64.64,0,0,0,0-.07.15.15,0,0,1,0-.07c-.51-14.32.64-28.76,5-42.48A145.53,145.53,0,0,1,394,301.17a41.73,41.73,0,0,1,9.36-13.48c2.67-2.4,8.45-6.95,12.24-4.54C417.46,284.31,417.32,286.14,416.6,287.92Z"/><path class="cls-2" d="M402.21,320.39a117.36,117.36,0,0,1-8.33,12c-1.38,1.81-2.79,3.61-4.17,5.42-.66.85-1.39,1.71-2,2.63.38-1.51.75-3,1.13-4.52,1.85-7.24,3.62-14.54,6.38-21.5a145.23,145.23,0,0,1,9.94-19.49c.1-.17-.17-.29-.27-.13-3,5-6.09,10-8.64,15.2a79.85,79.85,0,0,0-3.67,9,138.28,138.28,0,0,1,4.89-19.26c0-.06-.07-.1-.09,0a65.88,65.88,0,0,0-5.07,20v0q-.93,2.79-1.72,5.63c-2.26,8-4.24,16.11-6.08,24.23a86.84,86.84,0,0,1,1.39-15.92.1.1,0,0,0-.19,0,50.49,50.49,0,0,0-1.38,16.79c-.7,3.09-1.37,6.18-2,9.27-1.4,6.61-3.13,13.32-4,20a.14.14,0,0,0,.27,0c1-3.61,1.57-7.36,2.38-11s1.63-7.34,2.49-11c1.24-5.33,2.55-10.64,3.87-15.95.89-1.95,2.61-3.67,3.89-5.31s2.82-3.58,4.19-5.4a79.26,79.26,0,0,0,6.89-10.67C402.38,320.37,402.25,320.32,402.21,320.39Z"/><path class="cls-2" d="M402.82,314.27a74.71,74.71,0,0,0-8.15,12.94c0,.06.07.12.1.06,2.74-4.29,5.44-8.62,8.17-12.92C403,314.28,402.87,314.2,402.82,314.27Z"/><path class="cls-3" d="M341.85,301.5c1.85,3.2,4,7,3.18,10.88-.51,2.43-2.29,4.4-2.61,6.88-.72,5.47,4.73,9.09,8.68,11.67,9.83,6.45,23.32,12.21,25.11,25.38.07.47.87.35.82-.1a.29.29,0,0,0,0-.09s.05,0,.05-.08a50.48,50.48,0,0,0-.19-20.12c-1.47-6.8-4.43-12.9-7.93-18.87C363,307,356.75,296.62,347.8,288.88c-2.47-2.14-7.55-6-9.52-1.16S339.57,297.61,341.85,301.5Z"/><path class="cls-2" d="M350.85,322.91c6.52,7.06,16.89,11,22.5,18.93a79.29,79.29,0,0,0-17.29-32.49.25.25,0,0,1,.36-.36,64.24,64.24,0,0,1,14.13,20.47,91.44,91.44,0,0,0-6.09-15.56c-.09-.19.18-.36.29-.17a59.35,59.35,0,0,1,6.56,17.49c7.39,17.91,8.08,38.9,6.53,57.78,0,.26-.43.27-.42,0,.42-14.88.18-30-3.38-44.53l-.24-.91c-6.1-8.51-16.43-12.45-23.06-20.54A.08.08,0,0,1,350.85,322.91Z"/><path class="cls-2" d="M349.34,316.85c3.42,3.14,6.79,6.35,10.22,9.49,0,0,0,.09-.05.07a50.51,50.51,0,0,1-10.38-9.36A.15.15,0,0,1,349.34,316.85Z"/><path class="cls-2" d="M348.8,303.24A107.3,107.3,0,0,0,359,317.33a.06.06,0,0,1-.09.09,49.86,49.86,0,0,1-10.34-14.07A.11.11,0,0,1,348.8,303.24Z"/><polygon class="cls-1" points="364.21 402.3 394.19 402.3 390.15 361.96 368.83 361.96 364.21 402.3"/><polygon class="cls-2" points="368.07 368.52 390.81 368.52 390.15 361.96 368.82 361.96 368.07 368.52"/><rect class="cls-1" x="365.15" y="357.5" width="28.1" height="6.44" transform="translate(758.4 721.43) rotate(180)"/></g><g id="Lamp"><rect class="cls-2" x="33.55" y="127.25" width="5.4" height="269.65"/><rect class="cls-2" x="-24.67" y="95.27" width="181.49" height="5.4" transform="translate(-49.92 75.42) rotate(-45)"/><rect class="cls-2" x="33.55" y="370.33" width="5.4" height="58.55" transform="translate(-363.35 435.85) rotate(-90)"/><polygon class="cls-3" points="132.7 51.8 150.8 34.8 133.76 20.96 120.2 33.71 132.7 51.8"/><polygon class="cls-4" points="150.8 34.8 132.7 51.8 127.73 44.61 143.24 28.67 150.8 34.8"/><polygon class="cls-3" points="130.83 80.2 179.67 34.3 156.34 21.74 119.74 56.13 130.83 80.2"/></g><g id="Mug"><path class="cls-5" d="M321.36,225.41S304,217.42,304,206.7s22.5-17.62,22.5-26-9.81-13.31-9.81-13.31,15.5,5.3,15.5,15.89-14.84,17.78-16.26,24.52C314,217.17,321.36,225.41,321.36,225.41Z"/><path class="cls-5" d="M320.5,225.41s17.36-6.29,17.36-14.71-22.51-13.85-22.51-20.44,9.81-10.46,9.81-10.46-15.5,4.17-15.5,12.5,17,14,18.26,20.82S320.5,225.41,320.5,225.41Z"/><rect class="cls-3" x="312.92" y="252.36" width="16.51" height="2.58"/><rect class="cls-4" x="312.92" y="252.36" width="16.51" height="1.7"/><path class="cls-3" d="M349,245.43a9.06,9.06,0,0,1-11,3.49,11.62,11.62,0,0,1-2.33-1.22l2.1-3.11a7.87,7.87,0,0,0,1.24.7,5.48,5.48,0,0,0,6.9-2c2.27-3.18,3.08-10.45.79-13.24-.16-.21-.82-.53-3.48,0-.49.11-1,.24-1.67.41a6.37,6.37,0,0,1-1.51.32l-.07-1.86-.18-1.87c.17,0,.44-.1.79-.2a23.35,23.35,0,0,1,3.75-.78c1.95-.2,4,0,5.26,1.58C353.37,232.22,351.86,241.44,349,245.43Z"/><path class="cls-4" d="M337.82,244.59a7.87,7.87,0,0,0,1.24.7l-1,3.63a11.62,11.62,0,0,1-2.33-1.22Z"/><path class="cls-4" d="M344.38,226.08l-1.11,4c-.49.11-1,.24-1.67.41a6.37,6.37,0,0,1-1.51.32l-.07-1.86-.18-1.87c.17,0,.44-.1.79-.2A23.35,23.35,0,0,1,344.38,226.08Z"/><path class="cls-3" d="M299.21,221.22s.15,1.23.43,3.16c.05.3.09.62.14,1,.2,1.33.45,2.9.75,4.6,0,.09,0,.19.05.29.44,2.43,1,5.08,1.59,7.57,0,.12.07.22.09.33.17.67.35,1.33.53,2s.38,1.25.57,1.85a28.77,28.77,0,0,0,1.25,3.19c3.43,7.08,8.21,7.87,11.17,7.87h10.8c3,0,7.74-.79,11.15-7.87l.31-.7c.07-.17.15-.35.22-.53s.15-.36.22-.55.1-.28.15-.4a56.73,56.73,0,0,0,1.77-6.14,2.5,2.5,0,0,0,.07-.26s0-.06,0-.1c.21-.88.4-1.77.58-2.65.31-1.45.58-2.87.82-4.23.1-.62.2-1.22.31-1.81,0-.16.05-.32.07-.47.07-.39.13-.78.18-1.14s.11-.71.16-1,.09-.66.14-1c.26-1.8.39-2.92.39-2.92Z"/><path class="cls-4" d="M300.58,230.22c.44,2.43,1,5.08,1.59,7.57.27,0,.54.09.82.16a11.27,11.27,0,0,1,3.7,1.6,21.54,21.54,0,0,1,3.1,2.58,22.55,22.55,0,0,0,3,2.56,7,7,0,0,0,3.62,1.18,4.57,4.57,0,0,0,3.3-1.57,21.08,21.08,0,0,0,2.46-3.07,38.94,38.94,0,0,1,2.43-3.23,10.22,10.22,0,0,1,1.53-1.4,8.53,8.53,0,0,1,.95-.49,3.7,3.7,0,0,1,1.08-.18,4.1,4.1,0,0,1,2.06.52,8.12,8.12,0,0,1,1.66,1.23c1,.91,1.86,2,2.75,2.94a6.83,6.83,0,0,0,3.06,2.28,2.43,2.43,0,0,0,.93,0,56.73,56.73,0,0,0,1.77-6.14c-.35-.09-.71-.18-1.06-.3a10.87,10.87,0,0,1-3.54-1.95,22.64,22.64,0,0,1-2.84-2.87,22.38,22.38,0,0,0-2.74-2.84,7,7,0,0,0-3.49-1.52,4.51,4.51,0,0,0-3.43,1.24,20.83,20.83,0,0,0-2.74,2.81c-.88,1-1.75,2-2.74,3a9,9,0,0,1-1.66,1.24,6.61,6.61,0,0,1-1,.4,4.53,4.53,0,0,1-1.1.08,4.25,4.25,0,0,1-2-.73,8.13,8.13,0,0,1-1.54-1.38c-.91-1-1.65-2.13-2.45-3.19a6.8,6.8,0,0,0-2.82-2.57c-1.21-.43-2.5.24-3.51,1C301.36,229.56,301,229.89,300.58,230.22Z"/><path class="cls-6" d="M300.53,229.93c0,.09,0,.19.05.29.39-.33.78-.66,1.18-1,1-.8,2.3-1.47,3.51-1a6.8,6.8,0,0,1,2.82,2.57c.8,1.06,1.54,2.18,2.45,3.19a8.13,8.13,0,0,0,1.54,1.38,4.25,4.25,0,0,0,2,.73,4.53,4.53,0,0,0,1.1-.08,6.61,6.61,0,0,0,1-.4,9,9,0,0,0,1.66-1.24c1-1,1.86-2,2.74-3a20.83,20.83,0,0,1,2.74-2.81,4.51,4.51,0,0,1,3.43-1.24,7,7,0,0,1,3.49,1.52,22.38,22.38,0,0,1,2.74,2.84,22.64,22.64,0,0,0,2.84,2.87,10.87,10.87,0,0,0,3.54,1.95c.35.12.71.21,1.06.3a2.5,2.5,0,0,0,.07-.26c-.34-.1-.69-.21-1-.34a13.65,13.65,0,0,1-6.09-4.84,22.13,22.13,0,0,0-2.78-3,7.84,7.84,0,0,0-3.75-1.67,5.2,5.2,0,0,0-3.9,1.35,21,21,0,0,0-2.85,2.88c-.88,1-1.72,2-2.67,2.94s-2,1.72-3.28,1.58a4.79,4.79,0,0,1-3.16-1.89c-.88-1-1.64-2.06-2.47-3.12a7.28,7.28,0,0,0-3.1-2.65,3,3,0,0,0-2.08.12,6.28,6.28,0,0,0-1.75,1.07C301.2,229.31,300.87,229.6,300.53,229.93Z"/><path class="cls-6" d="M302.17,237.79c0,.12.07.22.09.33l.65.14a13.86,13.86,0,0,1,6.55,4.22,19.9,19.9,0,0,0,3,2.68,7.65,7.65,0,0,0,3.91,1.29,5.07,5.07,0,0,0,3.74-1.71,21.24,21.24,0,0,0,2.57-3.14,37.65,37.65,0,0,1,2.37-3.19c.84-.95,1.87-1.91,3.1-1.9a4.85,4.85,0,0,1,3.33,1.58c1,.88,1.84,1.9,2.77,2.87a7.37,7.37,0,0,0,3.33,2.34,2.81,2.81,0,0,0,.87,0c0-.13.1-.28.15-.4a2.43,2.43,0,0,1-.93,0,6.83,6.83,0,0,1-3.06-2.28c-.89-1-1.75-2-2.75-2.94a8.12,8.12,0,0,0-1.66-1.23,4.1,4.1,0,0,0-2.06-.52,3.7,3.7,0,0,0-1.08.18,8.53,8.53,0,0,0-.95.49,10.22,10.22,0,0,0-1.53,1.4,38.94,38.94,0,0,0-2.43,3.23,21.08,21.08,0,0,1-2.46,3.07,4.57,4.57,0,0,1-3.3,1.57,7,7,0,0,1-3.62-1.18,22.55,22.55,0,0,1-3-2.56,21.54,21.54,0,0,0-3.1-2.58A11.27,11.27,0,0,0,303,238C302.71,237.88,302.44,237.83,302.17,237.79Z"/></g><g id="Character"><polygon class="cls-7" points="127.44 340.24 51.08 401.81 55.38 401.81 143.57 340.24 127.44 340.24"/><polygon class="cls-7" points="134.61 340.24 96.88 401.81 101.18 401.81 147.43 340.24 134.61 340.24"/><polygon class="cls-7" points="153.11 340.24 190.84 401.81 186.54 401.81 140.29 340.24 153.11 340.24"/><polygon class="cls-7" points="159.7 340.24 236.05 401.81 231.75 401.81 143.57 340.24 159.7 340.24"/><polygon class="cls-1" points="287.13 317.65 287.13 299.64 182.28 295.34 126.9 147.47 0 147.47 44.9 317.65 152.17 347.77 158.89 347.77 287.13 317.65"/><polygon class="cls-8" points="0 147.47 14.52 147.47 61.3 302.6 156.2 329.48 287.13 299.64 287.13 317.65 158.89 347.77 152.17 347.77 44.9 317.65 0 147.47"/><path class="cls-9" d="M364.25,401.19c-3.39.08-91.13-27.05-93.82-30.19-.29-.35,1.08-13.34,3.34-23.66.11-.49-31.16-41.46-31.16-41.46l56.53-22,27.05,56,7,14.57s29.27,29.42,31.86,33.19S367.63,401.11,364.25,401.19Z"/><path class="cls-3" d="M366.72,401.68c-3.53.1-95.13-27.87-98-31.14-1.08-1.24.56-6.9,5-23.2l60.06,7.23s31,29.11,33.7,33S370.24,401.59,366.72,401.68Z"/><path class="cls-2" d="M366.52,397.62c-15.24-5.07-77.19-24.06-92.64-27.9-.12,0-.15,0,0,.09,15,5.35,77.1,23.84,92.59,28.06C366.77,398,366.84,397.72,366.52,397.62Z"/><path class="cls-2" d="M362.65,382.51a12.9,12.9,0,0,0-10.33.94,12.54,12.54,0,0,0-5.94,7.16c0,.09.14.14.19.05a14.91,14.91,0,0,1,16-8A.1.1,0,0,0,362.65,382.51Z"/><path class="cls-2" d="M340,360.63c-6.12-2-13.91-2-19.26,1.9-.21.15,0,.44.22.4a88.81,88.81,0,0,1,18.92-1.51A.4.4,0,0,0,340,360.63Z"/><path class="cls-2" d="M344.21,363.93c-6.12-2-13.91-2-19.26,1.89-.21.15,0,.45.22.41a88.81,88.81,0,0,1,18.92-1.51A.4.4,0,0,0,344.21,363.93Z"/><path class="cls-2" d="M348.39,367.23c-6.12-2-13.91-2-19.26,1.89-.21.15,0,.44.22.41A88.81,88.81,0,0,1,348.27,368,.4.4,0,0,0,348.39,367.23Z"/><path class="cls-2" d="M352.57,370.53c-6.12-2-13.91-2-19.26,1.89-.21.15,0,.44.22.4a89.46,89.46,0,0,1,18.92-1.51A.4.4,0,0,0,352.57,370.53Z"/><path class="cls-2" d="M351.68,346.26c-2.32-3.53-7-2.21-9.75-.11a33.73,33.73,0,0,0-10.38,14,.16.16,0,0,0,.14.23.79.79,0,0,0,.95.84c5.3-1.69,11.18-2.84,15.8-6.11C351.14,353.21,353.88,349.6,351.68,346.26ZM340.15,357c-2.58.9-5.2,1.66-7.75,2.65a101.16,101.16,0,0,1,6.24-8.05,37,37,0,0,1,3.51-3.46c2-1.62,9.56-4.92,8.13,1.95C349.49,353.9,343.23,356,340.15,357Z"/><path class="cls-2" d="M315.58,357.78c5.1,2.45,11.09,2.61,16.6,3.4a.78.78,0,0,0,.8-1,.17.17,0,0,0,.1-.25,33.76,33.76,0,0,0-12.56-12.1c-3-1.61-7.89-2.14-9.6,1.73C309.31,353.23,312.61,356.34,315.58,357.78Zm-2.64-4.63c-2.55-6.55,5.49-4.56,7.69-3.28a37.54,37.54,0,0,1,4,2.83c2.69,2.11,5,4.55,7.49,6.91-2.68-.56-5.39-.88-8.09-1.33C320.86,357.74,314.35,356.75,312.94,353.15Z"/><path class="cls-2" d="M329.05,342.54l-62.32,9.21S232.72,290,219,274.64l0,0a22.51,22.51,0,0,0-2.52-2.45h0a13.07,13.07,0,0,0-4.5-1.13h0c-18.43-2.24-80.45,3.78-123.3,1l20-26.76,8.87-11.86c48.28-5.51,107.53-25.25,134.26-11.84C280.78,236.15,329.05,342.54,329.05,342.54Z"/><path class="cls-8" d="M321.24,332c-10.6,1.36-7.57.83-18.15,2.3-5.18.73-31.2,4.3-35.92,5.77-.1,0-.08.21,0,.21,4.94,0,30.88-4.09,36.05-4.91,10.55-1.67,7.5-1.3,18-3.08A.15.15,0,1,0,321.24,332Z"/><path class="cls-8" d="M267.05,339.16c-7.05-11.79-39.16-70-45.55-72.28-5.82-2.08-122.21.34-123.93.35-.12,0-.13.19,0,.19,13.78-.18,120.16-.56,123.2.64,6.3,2.5,44.7,70,45.65,71.42C266.66,339.86,267.29,339.57,267.05,339.16Z"/><path class="cls-2" d="M56.05,247.7s-3.68,35.09,14.13,52.55c21.31,20.89,162,15.61,183.75,8.57s22.47-42.22-1.35-50.37C229.92,250.7,129.42,246.25,127,245.3s-9.35-12.07-9.35-12.07Z"/><path class="cls-8" d="M85.81,246.71c0-.17-.29-.12-.29,0A19.35,19.35,0,0,1,81,259.21c-3.34,3.85-8.26,6-12.72,8.27-.43.21-.1.88.34.75a39.2,39.2,0,0,0,7.88-3.39,19.15,19.15,0,0,0,5.92-4.93A16.94,16.94,0,0,0,85.81,246.71Z"/><path class="cls-8" d="M126.08,243.11c-1-1.27-2.08-2.48-3.12-3.72-2.45-2.92-4.92-5.85-7.49-8.67-.25-.27-.73.11-.5.4,1.73,2.27,3.57,4.46,5.37,6.67.93,1.13,1.85,2.26,2.79,3.39a21.21,21.21,0,0,1,2.6,3.3c.67,1.25-.21,2.33-1.51,2.47a4.54,4.54,0,0,1-3.14-1.16c-2-1.55-3.63-3.78-5.32-5.68-1-1.17-2.06-2.33-3.11-3.48s-2.31-2.38-3.42-3.6a.1.1,0,0,0-.15.12c1,1.33,1.87,2.73,2.85,4.06s2,2.66,3,4,1.94,2.45,3,3.65a12.32,12.32,0,0,0,3,2.68c1.86,1.09,5.1,1.33,6.09-1.08A3.39,3.39,0,0,0,126.08,243.11Z"/><path class="cls-8" d="M250.94,309c-7.5.14-15,.58-22.51.74s-14.89.2-22.33.13q-22.42-.21-44.82-1.75c-15.08-1-31.34-2.54-46.32-4.61-7.16-1-14.43-1.82-21.51-3.35a33.93,33.93,0,0,1-17-8.66C66.79,282,63,268.21,61.47,255c-.21-1.77-.38-3.55-.53-5.33a.09.09,0,0,0-.18,0c.88,13.55,3,27.68,11.51,38.57A33.82,33.82,0,0,0,86.15,299c6.7,2.68,14.15,3.31,21.23,4.27,15,2,31.36,3.62,46.48,4.79s30.48,1.92,45.74,2.14,30.53,0,45.77-.74c1.86-.09,3.72-.2,5.58-.36A.09.09,0,0,0,250.94,309Z"/><path class="cls-8" d="M271,276.15a24.18,24.18,0,0,0-10.05-14.37c-5.4-3.69-11.86-5.37-18.26-6.3-7.23-1-14.56-1.59-21.84-2.3q-22.4-2.18-44.82-4c-14.94-1.23-47.12-3.72-48.93-3.79-.16,0-.19.26,0,.27,14.42,1.61,27.54,3,42,4.3s29,2.7,43.55,4.13q10.85,1.08,21.68,2.19c6.7.69,13.59,1.37,19.87,4,5.39,2.22,10.24,5.79,13,11a25.91,25.91,0,0,1,2.15,16.69,29.39,29.39,0,0,1-7,14.1,25,25,0,0,1-13.07,7.89c-1.32.29-2.92.49-4.13.73-.09,0-.19.22-.09.22,10.8.27,20.79-7.62,24.69-17.48A28.92,28.92,0,0,0,271,276.15Z"/><path class="cls-10" d="M98,161.33c7.15,28,21.36,61.47,27.2,66.82,7.4,6.76,52.65,15.63,55,15.86,3.92.38,12-39.95,8.34-39.87-9.68.22-39.5-2.81-41.64-4.91s-17.36-20.37-33-41C103.22,144.05,93.61,143.94,98,161.33Z"/><path class="cls-10" d="M176.61,242.33c.65.31,10,4.72,15.69,6.23,4.27,1.13,16.65,4.05,18.36-.53,1.17-3.13-5.91-5.7-10.88-7.63-2.61-1-5.87-3.65-5.15-5.34,1.27-2.94,8-.18,12.46,2.27,8.6,4.72,20.11,13.32,25.18,8.89,1.92-1.67-.42-4.58-3.82-7.4,5.48,3.25,11.3,5.89,13.51,4.12,1.26-1,1.29-2.36.54-3.88,1.68.5,3.15.36,4.15-.75,1.71-1.88.79-4.57-1.2-7.3a2.11,2.11,0,0,0,1.57-1.09c3.58-5.75-15.41-21.57-21.88-22.94-19-4-38.95-2.73-38.95-2.73C178.9,210.37,176.59,242.32,176.61,242.33Z"/><path class="cls-2" d="M204,224.24a32.15,32.15,0,0,1,12.74,4.56c4.87,3,8.15,6.68,12.26,10.32.11.09,0,.26-.15.17-2-1.73-10.06-8.21-12.15-9.68A30.76,30.76,0,0,0,204,224.32,0,0,0,0,1,204,224.24Z"/><path class="cls-2" d="M207.35,216.13c5,1.24,10.13,2.49,14.8,4.73,5.12,2.46,9.17,6.56,13.16,10.5q3.58,3.55,7,7.27c.1.1,0,.27-.14.17q-6.08-6.12-12.5-11.86a40.38,40.38,0,0,0-13.59-8.12c-2.88-1-5.82-1.81-8.76-2.6A0,0,0,1,1,207.35,216.13Z"/><path class="cls-2" d="M212.49,209c4.86.88,9.09,1.62,13.43,4.11,5.75,3.29,11.36,8.94,13.33,10.94,2.17,2.21,4.27,4.49,6.33,6.81.08.09-.08.24-.17.14a158.71,158.71,0,0,0-15.09-14.24,31.93,31.93,0,0,0-8.37-5.16,58.1,58.1,0,0,0-9.47-2.57S212.47,209,212.49,209Z"/><path class="cls-3" d="M185.45,201.44l-13.59,47s-40.12-10.42-47.58-18.1S102.4,182.42,98,162.86s5.53-19.31,15-7.14S145.81,197.38,147.1,198,185.45,201.44,185.45,201.44Z"/><path class="cls-2" d="M167.54,227.79c1.65-5.54,3.34-11.07,4.79-16.67.82-3.18,1.66-6.36,2.45-9.55,0-.12-.17-.19-.21-.07-1.88,5.5-3.75,11-5.37,16.59s-3.28,11.09-4.83,16.66c-.88,3.17-1.66,6.35-2.34,9.57,0,.07.09.1.11,0C164.2,238.92,165.88,233.37,167.54,227.79Z"/><path class="cls-4" d="M166.07,246.84c-11.38-3.21-36.1-10.67-41.8-16.52-7.46-7.69-21.87-47.9-26.3-67.46-2.12-9.39-.93-14.22,1.93-15.34a10.31,10.31,0,0,1,.91.49C115.53,168.25,146.09,216.57,166.07,246.84Z"/><path class="cls-3" d="M52,253.77c.22.23,85-18.34,85.8-19.33,1.1-1.39-14.06-65.15-30-84.18-4-4.75-16.73-4.42-22.43.38C57.1,174.44,51.19,253,52,253.77Z"/><path class="cls-10" d="M78.74,155.2c-16.91,13-61.47,65.59-52.16,78.07s73.16,8.32,91.79,2.95c5.55-1.59-8.67-36.85-14.59-38.6-4.92-1.45-32.57,6-33.06,4.45-.57-1.81,5.56-13.47,15.43-34.77C97.54,142.74,86.21,149.45,78.74,155.2Z"/><path class="cls-10" d="M129.77,193.51c12.32.32,15.43,2.29,26-3,6.92-3.45,12.09-.52,7.39,6-7.69,10.67-23.67,13.6-29.5,13Z"/><path class="cls-10" d="M95.86,199.81s14.78-5.27,27.94-6.23c9.1-.67,29.07.09,44.58,22.48,3.68,5.31,5.16,15.49-4,9-6.51-4.61-9.24-9.5-13.51-11.49,0,0,.34,13.16-5.12,16.64a119,119,0,0,1-14.93,8.08,23.55,23.55,0,0,1-1.76-2.66s-5.41,2.77-14.35.4Z"/><path class="cls-10" d="M132.59,194.33c3.82,2.87,11.82,9.1,16.6,16.47,5.3,8.19,13.31,25.39,7.22,29.24-4.46,2.83-8.09-3.47-8.09-3.47s1.81,7.81-2.78,9.48c-4.18,1.52-6.7-3.52-6.7-3.52s.28,4.92-4,5.61c-5.18.83-4.93-9.63-10.9-13.32C122.57,234,132.59,194.33,132.59,194.33Z"/><path class="cls-2" d="M139.6,215c3.15,3.3,8.4,12.61,8.81,21.43,0,.2-.13.32-.18.13A95.3,95.3,0,0,0,139.52,215S139.57,214.93,139.6,215Z"/><path class="cls-2" d="M131.49,220.55c2.43,3.13,7.4,13,7.52,21.92,0,.2-.15.31-.19.12a102.6,102.6,0,0,0-7.41-22S131.46,220.51,131.49,220.55Z"/><path class="cls-2" d="M150.88,213.49c3.73,1.8,6,4.15,8.9,7a54.21,54.21,0,0,0,4.53,4c1.45,1.13,3.59,2.82,5.52,1.75,1.07-.6,1.29-2,1.25-3.09a15.88,15.88,0,0,0-1.41-4.82c0-.06.07-.11.1-.05a23.69,23.69,0,0,1,1.7,4.37,5.27,5.27,0,0,1-.16,3.12c-.93,2.07-3.53,1.93-5.24,1a17.57,17.57,0,0,1-2.84-2c-.86-.7-1.69-1.45-2.49-2.21-1.66-1.57-3.23-3.24-4.87-4.82a50.88,50.88,0,0,0-5.07-4.2C150.73,213.56,150.81,213.45,150.88,213.49Z"/><path class="cls-2" d="M156.82,228.65a126.35,126.35,0,0,0-6-15.08c0-.07.05-.13.09-.07,2.58,3.41,6.22,11.92,7,14.58s1.52,6,1.07,8.68c-.68,4.1-3.53,4.43-4.57,4.46a5.35,5.35,0,0,1-3.39-1.15,10.9,10.9,0,0,1-2.68-3.49c0-.07.06-.13.1-.07,1.15,1.85,3.25,3.84,5.52,3.91a3.78,3.78,0,0,0,2.77-.94,4.9,4.9,0,0,0,1.2-3.2A22.74,22.74,0,0,0,156.82,228.65Z"/><path class="cls-3" d="M95.86,198l12.83,44.65s-79.83,4.55-84.25-9.94,34.14-62,50.14-75c18.54-15.12,19.53-8.77,13.5,6.35-6.32,15.82-17.2,38.42-17.2,38.42Z"/><path class="cls-2" d="M45.66,209.64A91.66,91.66,0,0,1,58,204.91a89.58,89.58,0,0,1,12.73-2.82c2.46-.38,4.92-.64,7.39-.93a.06.06,0,0,1,0,.12A114.67,114.67,0,0,0,65.27,204Q59,205.63,52.72,207.5c-2.35.71-4.67,1.52-7,2.31C45.61,209.85,45.56,209.69,45.66,209.64Z"/><path class="cls-2" d="M95.67,197.89c-.4,0-22.6,3.5-23.34,3.71.14-.31,5.77-10.87,6.6-12.42.09-.15.16-.31.24-.46.51-.67,1-1.33,1.5-2l1.82-2.65s0-.06,0,0l-1.93,2.57c-.3.4-.58.8-.87,1.21.57-1.1,1.11-2.2,1.66-3.31.88-1.76,1.69-3.55,2.51-5.34,0-.06-.07-.1-.09,0-1.66,3.08-3.42,6.1-5.08,9.18s-8,14.37-8,14.36,24.54-4.34,25-4.45A.15.15,0,0,0,95.67,197.89Z"/><path class="cls-2" d="M92.63,225.12c-1.4-5-2.77-10-4.35-14.89-.9-2.8-1.79-5.61-2.72-8.4,0-.1-.22-.06-.19,0C86.58,206.93,87.8,212,89.24,217s2.82,10,4.32,14.91c.85,2.82,1.78,5.6,2.81,8.36a.05.05,0,0,0,.1,0C95.43,235.14,94,230.14,92.63,225.12Z"/><path class="cls-2" d="M109.57,243.5c-.56-1.4-1.22-3.4-1.84-4.77-.17-.37-.43-.34-.31,0,.39,1.26.66,2.64,1,3.92-1.12,0-2.24,0-3.35.1l-3.88.16c-2.52.1-5,.18-7.58.22q-7.69.15-15.37,0A301,301,0,0,1,47.54,241c-2.85-.37-5.7-.79-8.53-1.3a82.94,82.94,0,0,1-8.3-1.78c-.08,0-.11.1,0,.13a46.81,46.81,0,0,0,7.13,2.15q3.81.83,7.68,1.43c5.12.79,10.29,1.3,15.46,1.68q15.39,1.11,30.83.93,4.32,0,8.64-.2c1.45-.05,2.91-.1,4.36-.18S109.67,243.74,109.57,243.5Z"/><rect class="cls-1" x="115.11" y="249.38" width="102.14" height="4.12"/><rect class="cls-11" x="115.11" y="249.38" width="56.52" height="4.12"/><polygon class="cls-11" points="169.91 253.5 259.43 253.5 272.08 192.7 182.56 192.7 169.91 253.5"/><polygon class="cls-7" points="173.97 253.5 263.49 253.5 276.14 192.7 186.62 192.7 173.97 253.5"/><path class="cls-9" d="M219.09,224.45a5.27,5.27,0,0,0,5.34,6,6.78,6.78,0,0,0,6.59-6,5.27,5.27,0,0,0-5.34-6A6.79,6.79,0,0,0,219.09,224.45Z"/><path class="cls-3" d="M101.34,170.66s-14.93-14.85-24.69-14.59l-8.33,7.28s-2.73.86-3.56-.86c-2-4.28-2.37-14.58,6.54-21.19,8.17-6.06,21.45-5.5,32.5-2.49,10.62,2.9,19.8,10,16.48,16.95S101.34,170.66,101.34,170.66Z"/><path class="cls-4" d="M102.43,167.4s12.28-8.61,13.58-13.77-9-10.18-15.67-12.17C90,138.38,83,139,77.14,144.45S102.43,167.4,102.43,167.4Z"/><path class="cls-3" d="M102.43,167.4s-11.9-20.52-26.95-22.66l1.17,11.33s9,.09,24.69,14.59Z"/><path class="cls-2" d="M72.59,156.24a19.16,19.16,0,0,1,8.08,1.15A35.62,35.62,0,0,1,88,160.91a61.25,61.25,0,0,1,6.71,4.71l3.13,2.67,3,2.82.34.31.38-.19a70.28,70.28,0,0,0,8.16-4.83,39,39,0,0,0,3.77-2.87,25.16,25.16,0,0,0,3.31-3.38,42.52,42.52,0,0,1-7.53,5.55c-1.34.81-2.71,1.56-4.09,2.29s-2.76,1.45-4.17,2.1l.72.12-3-2.9c-1-.93-2.11-1.84-3.18-2.74s-2.22-1.7-3.37-2.49-2.33-1.56-3.58-2.21a33.06,33.06,0,0,0-7.75-3.22c-.68-.19-1.37-.32-2.06-.46s-1.38-.2-2.08-.24A12.09,12.09,0,0,0,72.59,156.24Z"/><path class="cls-2" d="M68.32,163.35A42.73,42.73,0,0,0,72.71,160a40.18,40.18,0,0,0,3.94-3.89,41.28,41.28,0,0,0-4.39,3.38A39.19,39.19,0,0,0,68.32,163.35Z"/><path class="cls-3" d="M96.33,163.71A84.16,84.16,0,0,0,94.89,178c-.07,3.34,1.21,15.31,4.92,14.88s-2.33-8.16-3.39-14.48.63-10.94.86-14.72Z"/><g class="cls-12"><path d="M96.33,163.71A84.16,84.16,0,0,0,94.89,178c-.07,3.34,1.21,15.31,4.92,14.88s-2.33-8.16-3.39-14.48.63-10.94.86-14.72Z"/></g><path class="cls-3" d="M109.5,164.37a119.85,119.85,0,0,1,2.76,13.89c.4,3,.48,13.93-2.91,13.92s1.26-7.59,1.57-13.39-1.69-11-2.29-14.37Z"/><g class="cls-12"><path d="M109.5,164.37a119.85,119.85,0,0,1,2.76,13.89c.4,3,.48,13.93-2.91,13.92s1.26-7.59,1.57-13.39-1.69-11-2.29-14.37Z"/></g><path class="cls-10" d="M103.68,165.1c-3.87-.25-11.09-8.34-13.55-14.76-.16-.44,1.05-4.67,2.28-9.88.74-3.16,1.48-6.7,1.93-10l19.9,7.79a52.61,52.61,0,0,0-3.7,12.33,7.91,7.91,0,0,0-.05,1.36,1.76,1.76,0,0,1,0,.23C110.56,154.81,109.75,165.5,103.68,165.1Z"/><path class="cls-2" d="M110.49,152c0,.06,0,.13,0,.22a12.71,12.71,0,0,1-2.14-.17c-11.66-1.86-12.58-16.51-12.58-21l18.47,7.23a53.25,53.25,0,0,0-3.72,12.33A7.93,7.93,0,0,0,110.49,152Z"/><path class="cls-10" d="M98.39,104.81c-4.17,6.47-6.23,28-2.48,34,5.43,8.68,17.21,12.7,25.32,5.51,7.86-7,10-35.06,5.59-40.8C120.26,95.05,104.55,95.25,98.39,104.81Z"/><path class="cls-2" d="M111.82,120.51a17.17,17.17,0,0,0,1.89-.41,3,3,0,0,0,1.84-.78,1,1,0,0,0,0-1.21,2.48,2.48,0,0,0-2.44-.57,3.64,3.64,0,0,0-2.26,1.29A1.06,1.06,0,0,0,111.82,120.51Z"/><path class="cls-2" d="M126.41,122.5a17.54,17.54,0,0,1-1.79-.71,3.16,3.16,0,0,1-1.69-1.08,1,1,0,0,1,.21-1.2,2.46,2.46,0,0,1,2.49-.15,3.6,3.6,0,0,1,2,1.65A1.06,1.06,0,0,1,126.41,122.5Z"/><path class="cls-2" d="M110.71,137.43c.3.39.59.9,1.1,1a4,4,0,0,0,1.6-.17.05.05,0,0,1,.06.08,2,2,0,0,1-1.94.55,1.53,1.53,0,0,1-1-1.42C110.55,137.39,110.66,137.38,110.71,137.43Z"/><path class="cls-2" d="M112.78,133.3a5,5,0,0,0,3,2.61,6.13,6.13,0,0,0,1.76.3,1.31,1.31,0,0,0,.34,0h.33a.36.36,0,0,0,.33-.29h0a.75.75,0,0,0,0-.15h0l0-.12c.17-1.11.28-2.82.28-2.82.38.26,2.33,1.45,2.37.87.33-4.85.69-10.24,0-15.13a.14.14,0,0,0-.27,0c-.49,4.65-.17,9.35-.6,14a8.49,8.49,0,0,0-2.23-1c-.16,0-.15,3.3-.27,3.79a.18.18,0,0,1,0,0c-1.9,0-3.24-.74-4.89-2.23C112.83,133.09,112.7,133.18,112.78,133.3Z"/><path class="cls-2" d="M117,135.57a5.94,5.94,0,0,1-2.57,1.51,2.63,2.63,0,0,1-1.61-.1c-1.11-.45-1-1.52-.68-2.39a6.62,6.62,0,0,1,.69-1.33A7.63,7.63,0,0,0,117,135.57Z"/><path class="cls-13" d="M114.39,137.08a2.63,2.63,0,0,1-1.61-.1c-1.11-.45-1-1.52-.68-2.39A2.73,2.73,0,0,1,114.39,137.08Z"/><path class="cls-2" d="M114.66,124.45c0-.06-.13,0-.13.11-.18,1.43-.63,3-2,3.32,0,0,0,.08,0,.08C114.14,128,114.71,125.84,114.66,124.45Z"/><path class="cls-2" d="M113.62,122.75c-2.27-.54-3.18,4-1.08,4.54S115.52,123.21,113.62,122.75Z"/><path class="cls-2" d="M123,125.55c0-.06.1.09.09.14-.34,1.41-.49,3.08.69,3.82,0,0,0,.09,0,.07C122.25,129,122.48,126.82,123,125.55Z"/><path class="cls-2" d="M124.59,124.33c2.32.3,1.55,4.9-.59,4.63S122.65,124.08,124.59,124.33Z"/><path class="cls-1" d="M100.44,118.67c3-3.69,3.1-11.62,5.89-12.75,6-2.44,12.52,8.79,18.9,11.15,6.19,2.29,9.71-.95,10.42-6.39s-2.34-10.37-8.93-13.94c-6.81-3.68-14.43-3.16-18.83-2.17,0,0,2.48-1.95,2.18-2.94s-4.22.32-5.52,1a10.06,10.06,0,0,0-2.6,2.44,10.91,10.91,0,0,0-2.73-1.32,6.29,6.29,0,0,0-4.28.32c-.24.33,1.91,1.43,3.46,2.09,0,0-4.37,2.85-5.52,6.22s-1.71,21.21-.52,21.83C93.89,125,99.24,120.17,100.44,118.67Z"/><path class="cls-1" d="M99.17,96c.06,0,.11.1,0,.12a11.32,11.32,0,0,0-5.08,3.53,14.09,14.09,0,0,0-2.57,6.89c-.62,4.76.09,9.53.48,14.28,0,.14-.22.16-.24,0-.74-5-1.39-10.37-.53-15.39C92,101.15,94.6,96.87,99.17,96Z"/><path class="cls-1" d="M106.68,104.2a16.35,16.35,0,0,1,5.49,2.41,23.19,23.19,0,0,1,4,4.14c2.83,3.19,6.16,6.08,10.32,7.31,0,0,0,.09,0,.08a19.92,19.92,0,0,1-9.83-6.16,51.78,51.78,0,0,0-4-4.45,20.83,20.83,0,0,0-6-3A.18.18,0,0,1,106.68,104.2Z"/><path class="cls-1" d="M112.36,94.19a31.32,31.32,0,0,1,8.91.26,24.64,24.64,0,0,1,8.12,2.63c4.33,2.42,7.49,6.88,6.86,12a10.71,10.71,0,0,1-3.54,6.83.14.14,0,0,1-.18-.21,11,11,0,0,0,2.06-13c-2.58-4.64-7.78-6.81-12.76-7.77a45.5,45.5,0,0,0-9.47-.65S112.34,94.2,112.36,94.19Z"/><path class="cls-8" d="M109.55,131.57a6.71,6.71,0,1,1,8.5-6.32h0a6.72,6.72,0,0,1-6.85,6.56A6.85,6.85,0,0,1,109.55,131.57Zm3.35-12.06a5.55,5.55,0,0,0-1.43-.21,5.8,5.8,0,1,0,1.43.21Z"/><path class="cls-8" d="M124.77,133.85c-2.47-.68-4-3.84-3.48-7.3a8,8,0,0,1,2.13-4.41,4.17,4.17,0,0,1,7.06,1.1,8,8,0,0,1,.68,4.85c-.57,3.65-3.24,6.28-6,5.86Zm2.68-12.2-.33-.07a3.6,3.6,0,0,0-3.07,1.19,7.12,7.12,0,0,0-1.87,3.92c-.49,3.17.92,6,3.16,6.37s4.44-1.94,4.94-5.11a7.07,7.07,0,0,0-.6-4.3A3.67,3.67,0,0,0,127.45,121.65Z"/><path class="cls-8" d="M117.71,126l-.47-.77c1.14-.69,3.64-1.46,5,.52l-.74.5C120.28,124.47,117.81,125.92,117.71,126Z"/><path class="cls-8" d="M87.92,123.1l-.73-.53c.25-.34,2.47-3.3,4.5-3.31s13.6,2.95,14.1,3.08l-.22.86c-3.36-.85-12.41-3.06-13.87-3S88.52,122.28,87.92,123.1Z"/><path class="cls-10" d="M98,122.73s-2.91-7.87-6.37-7-2.48,11.43.72,13.67a3.73,3.73,0,0,0,5.34-.67Z"/><path class="cls-2" d="M92,118.75c-.06,0-.09,0,0,.09,2.23,1.65,2.93,4.3,3.22,6.93a2.05,2.05,0,0,0-2.83-1.32c-.08,0,0,.14,0,.15A2.28,2.28,0,0,1,94.64,126a11,11,0,0,1,.65,2.28c.06.25.49.24.47,0v-.06C96.65,125,95.35,120,92,118.75Z"/></g></svg>