<svg width="418" height="403" viewBox="0 0 418 403" fill="none" xmlns="http://www.w3.org/2000/svg">
<g id="6144339 1" clip-path="url(#clip0_102_136)">
<g id="Table">
<path id="Vector" d="M0.620239 254.93H127.51V272.94H0.620239V254.93Z" fill="#455A64"/>
<path id="Vector_2" d="M3.64023 272.94H124.48V278.79H3.64023V272.94Z" fill="#455A64"/>
<path id="Vector_3" d="M3.64023 272.94H124.48V274.88H3.64023V272.94Z" fill="#263238"/>
<path id="Vector_4" d="M123.29 402.3H128.13L114.06 278.79H101.73L123.29 402.3Z" fill="#455A64"/>
<path id="Vector_5" d="M101.73 278.79L103.18 287.06H115L114.06 278.79H101.73Z" fill="#263238"/>
<path id="Vector_6" d="M4.84015 402.3H0.000152588L14.0702 278.79H26.4001L4.84015 402.3Z" fill="#455A64"/>
<path id="Vector_7" d="M26.4001 278.79L24.9502 287.06H13.1302L14.0702 278.79H26.4001Z" fill="#263238"/>
</g>
<g id="Plant">
<path id="Vector_8" d="M32.96 327.92C33.9346 331.483 34.5806 335.129 34.89 338.81C34.79 338.99 34.81 339.67 34.89 339.48C34.89 340.08 35.82 339.97 35.82 339.38C35.82 339 35.82 338.61 35.82 338.24C37.95 335.6 41.04 333.92 43.54 331.62C45.5561 329.82 47.0224 327.487 47.7701 324.89C49.8501 317.75 47.9 310.18 50.4 303.06C52.54 296.91 56.4 291.57 59.66 286.01C63.1 280.12 65.66 273.93 65.9 267.01C66.1 261.73 65.47 254.7 61.45 250.74C57.19 246.55 51.91 249.69 48.64 253.43C39.18 264.29 34.8 278.01 33.03 292.05C32.03 299.81 31.03 307.62 31.28 315.46C31.4269 319.659 31.9896 323.832 32.96 327.92V327.92Z" fill="#4A6F3E"/>
<path id="Vector_9" d="M34.8502 341.66C34.3317 334.332 34.4186 326.974 35.1102 319.66C35.1047 319.647 35.1019 319.634 35.1019 319.62C35.1019 319.606 35.1047 319.593 35.1102 319.58C34.9902 313.64 34.5202 307.71 34.7502 301.76C35.0367 295.32 35.9137 288.92 37.3702 282.64C37.3702 282.57 37.5002 282.59 37.4902 282.64C36.3265 288.812 35.6345 295.063 35.4202 301.34C35.3002 304.7 35.3202 308.06 35.5002 311.42C35.5502 312.51 35.6602 313.61 35.7302 314.71C38.2018 298.015 44.2348 282.048 53.4202 267.89C53.5502 267.7 53.8902 267.89 53.7702 268.1C47.2064 278.86 42.3488 290.573 39.3702 302.82C43.9202 294.39 50.7902 287.46 55.8902 279.36C55.8902 279.31 55.9902 279.36 55.9602 279.36C51.3802 288.36 43.8202 295.49 38.9602 304.36C38.1302 307.98 37.4402 311.63 36.9602 315.31C36.2774 320.355 35.9134 325.439 35.8702 330.53C38.6402 325.35 41.5102 320.39 43.7802 314.91C43.8402 314.77 44.0502 314.91 44.0002 315.01C42.0702 320.7 39.4802 326.83 35.8502 331.69C35.8502 335.29 35.9402 338.89 36.1502 342.49C36.7202 352.09 38.3602 361.57 39.1502 371.14C39.1568 371.198 39.14 371.257 39.1035 371.303C39.0669 371.349 39.0136 371.378 38.9552 371.385C38.8969 371.392 38.8383 371.375 38.7923 371.338C38.7464 371.302 38.7168 371.248 38.7102 371.19C36.7574 361.445 35.4678 351.579 34.8502 341.66V341.66Z" fill="#263238"/>
<path id="Vector_10" d="M45.0501 267.59C45.0501 267.52 45.18 267.59 45.15 267.64C43.4 272.49 42.41 277.41 41.15 282.38C41.1421 282.428 41.1155 282.47 41.0761 282.498C41.0367 282.527 40.9878 282.538 40.9401 282.53C40.8923 282.522 40.8497 282.495 40.8216 282.456C40.7934 282.417 40.7821 282.368 40.7901 282.32C41.4817 277.228 42.917 272.265 45.0501 267.59V267.59Z" fill="#263238"/>
<path id="Vector_11" d="M0.500092 287.92C1.65737 290.765 2.99337 293.534 4.50009 296.21C7.66009 301.95 10.9601 307.21 11.5501 313.89C11.6509 316.877 12.0768 319.845 12.8201 322.74C13.6517 325.21 14.841 327.545 16.3501 329.67C19.7801 334.67 24.0501 338.95 27.2301 344.13C30.5252 349.527 32.9609 355.404 34.4501 361.55C34.5301 361.89 35.0601 361.8 34.9801 361.46C34.9788 361.437 34.9788 361.413 34.9801 361.39C34.9856 361.367 34.9856 361.343 34.9801 361.32C35.4901 347 34.3401 332.56 29.9801 318.84C28.0733 312.807 25.7751 306.904 23.1001 301.17C20.9031 296.101 17.7216 291.52 13.7401 287.69C11.0701 285.29 5.29009 280.74 1.50009 283.15C-0.359908 284.31 -0.219908 286.14 0.500092 287.92Z" fill="#BDF5AA"/>
<path id="Vector_12" d="M14.89 320.39C17.4148 324.559 20.1968 328.567 23.22 332.39C24.6 334.2 26.01 336 27.39 337.81C28.05 338.66 28.78 339.52 29.39 340.44C29.01 338.93 28.64 337.44 28.26 335.92C26.41 328.68 24.64 321.38 21.88 314.42C19.0614 307.683 15.7387 301.167 11.94 294.93C11.84 294.76 12.11 294.64 12.21 294.8C15.21 299.8 18.3 304.8 20.85 310C22.255 312.923 23.4806 315.928 24.52 319C23.354 312.471 21.7198 306.034 19.63 299.74C19.63 299.68 19.7 299.64 19.72 299.74C22.4499 306.099 24.1609 312.848 24.79 319.74V319.74C25.41 321.6 25.9833 323.477 26.51 325.37C28.77 333.37 30.75 341.48 32.59 349.6C32.617 344.262 32.1517 338.933 31.2 333.68C31.2066 333.66 31.2193 333.642 31.2364 333.63C31.2534 333.618 31.274 333.611 31.295 333.611C31.3161 333.611 31.3366 333.618 31.3536 333.63C31.3707 333.642 31.3834 333.66 31.39 333.68C32.7871 339.16 33.2536 344.835 32.77 350.47C33.47 353.56 34.14 356.65 34.77 359.74C36.17 366.35 37.9 373.06 38.77 379.74C38.7619 379.769 38.7443 379.796 38.7199 379.814C38.6955 379.833 38.6657 379.843 38.635 379.843C38.6043 379.843 38.5745 379.833 38.5501 379.814C38.5258 379.796 38.5081 379.769 38.5 379.74C37.5 376.13 36.93 372.38 36.12 368.74C35.31 365.1 34.49 361.4 33.63 357.74C32.39 352.41 31.08 347.1 29.76 341.79C28.87 339.84 27.15 338.12 25.87 336.48C24.59 334.84 23.05 332.9 21.68 331.08C19.1016 327.713 16.7975 324.145 14.79 320.41C14.72 320.37 14.85 320.32 14.89 320.39Z" fill="#263238"/>
<path id="Vector_13" d="M14.2802 314.27C17.4323 318.293 20.1633 322.629 22.4302 327.21C22.4302 327.27 22.3602 327.33 22.3302 327.27C19.5902 322.98 16.8902 318.65 14.1602 314.35C14.1002 314.28 14.2302 314.2 14.2802 314.27Z" fill="#263238"/>
<path id="Vector_14" d="M75.2501 301.5C73.4001 304.7 71.2501 308.5 72.0701 312.38C72.5801 314.81 74.3601 316.78 74.6801 319.26C75.4001 324.73 69.9501 328.35 66.0001 330.93C56.1701 337.38 42.6801 343.14 40.8901 356.31C40.8201 356.78 40.0201 356.66 40.0701 356.21C40.0655 356.18 40.0655 356.15 40.0701 356.12C40.0701 356.12 40.0201 356.12 40.0201 356.04C38.7327 349.389 38.7973 342.546 40.2101 335.92C41.6801 329.12 44.6401 323.02 48.1401 317.05C54.1001 307 60.3501 296.62 69.3001 288.88C71.7701 286.74 76.8501 282.88 78.8201 287.72C80.7901 292.56 77.5301 297.61 75.2501 301.5Z" fill="#BDF5AA"/>
<path id="Vector_15" d="M66.2501 322.91C59.7301 329.97 49.3601 333.91 43.7501 341.84C46.8853 329.804 52.8082 318.674 61.0401 309.35C61.0878 309.302 61.1146 309.237 61.1146 309.17C61.1146 309.102 61.0878 309.038 61.0401 308.99C60.9923 308.942 60.9276 308.915 60.8601 308.915C60.7926 308.915 60.7278 308.942 60.68 308.99C54.6814 314.828 49.8815 321.781 46.5501 329.46C48.1009 324.098 50.1394 318.89 52.6401 313.9C52.7301 313.71 52.4601 313.54 52.3501 313.73C49.2539 319.177 47.0398 325.08 45.7901 331.22C38.4001 349.13 37.7101 370.12 39.2601 389C39.2601 389.26 39.69 389.27 39.68 389C39.26 374.12 39.5001 359 43.0601 344.47L43.3001 343.56C49.4001 335.05 59.7301 331.11 66.3601 323.02C66.3694 323.005 66.3734 322.987 66.3713 322.969C66.3692 322.951 66.3611 322.934 66.3484 322.922C66.3357 322.909 66.3191 322.901 66.3013 322.899C66.2834 322.897 66.2654 322.901 66.2501 322.91Z" fill="#263238"/>
<path id="Vector_16" d="M67.7603 316.85C64.3403 319.99 60.9703 323.2 57.5403 326.34C57.5403 326.34 57.5402 326.43 57.5902 326.41C61.4673 323.786 64.9607 320.636 67.9702 317.05C67.9862 317.021 67.9921 316.987 67.987 316.955C67.9819 316.922 67.9662 316.892 67.9422 316.869C67.9182 316.846 67.8874 316.832 67.8545 316.829C67.8216 316.825 67.7885 316.833 67.7603 316.85V316.85Z" fill="#263238"/>
<path id="Vector_17" d="M68.3 303.24C65.2869 308.205 61.8757 312.917 58.1 317.33C58.0881 317.342 58.0814 317.358 58.0814 317.375C58.0814 317.392 58.0881 317.408 58.1 317.42C58.1119 317.432 58.1281 317.439 58.145 317.439C58.1619 317.439 58.1781 317.432 58.19 317.42C62.4374 313.375 65.9378 308.612 68.53 303.35C68.5446 303.319 68.5465 303.284 68.5352 303.253C68.524 303.221 68.5005 303.195 68.47 303.18C68.4395 303.165 68.4045 303.164 68.3726 303.175C68.3407 303.186 68.3146 303.209 68.3 303.24V303.24Z" fill="#263238"/>
<path id="Vector_18" d="M52.8901 402.3H22.9101L26.9501 361.96H48.2701L52.8901 402.3Z" fill="#455A64"/>
<path id="Vector_19" d="M49.03 368.52H26.29L26.95 361.96H48.28L49.03 368.52Z" fill="#263238"/>
<path id="Vector_20" d="M51.9501 363.93H23.8501V357.49H51.9501V363.93Z" fill="#455A64"/>
</g>
<g id="Lamp">
<path id="Vector_21" d="M378.15 127.25H383.55V396.9H378.15V127.25Z" fill="#263238"/>
<path id="Vector_22" d="M288.766 31.8977L417.098 160.23L413.28 164.049L284.947 35.716L288.766 31.8977Z" fill="#263238"/>
<path id="Vector_23" d="M410.12 396.9V402.3H351.57V396.9H410.12Z" fill="#263238"/>
<path id="Vector_24" d="M284.4 51.8L266.3 34.8L283.34 20.96L296.9 33.71L284.4 51.8Z" fill="#FFC727"/>
<path id="Vector_25" opacity="0.1" d="M266.3 34.8L284.4 51.8L289.37 44.61L273.86 28.67L266.3 34.8Z" fill="black"/>
<path id="Vector_26" d="M286.27 80.2L237.43 34.3L260.76 21.74L297.36 56.13L286.27 80.2Z" fill="#FFC727"/>
</g>
<g id="Mug">
<path id="Vector_27" opacity="0.6" d="M95.7401 225.41C95.7401 225.41 113.1 217.42 113.1 206.7C113.1 195.98 90.6001 189.08 90.6001 180.7C90.6001 172.32 100.41 167.39 100.41 167.39C100.41 167.39 84.9101 172.69 84.9101 183.28C84.9101 193.87 99.7501 201.06 101.17 207.8C103.1 217.17 95.7401 225.41 95.7401 225.41Z" fill="#DBDBDB"/>
<path id="Vector_28" opacity="0.6" d="M96.6002 225.41C96.6002 225.41 79.2402 219.12 79.2402 210.7C79.2402 202.28 101.75 196.85 101.75 190.26C101.75 183.67 91.9402 179.8 91.9402 179.8C91.9402 179.8 107.44 183.97 107.44 192.3C107.44 200.63 90.4402 206.3 89.1802 213.12C87.9202 219.94 96.6002 225.41 96.6002 225.41Z" fill="#DBDBDB"/>
<path id="Vector_29" d="M87.6702 252.36H104.18V254.94H87.6702V252.36Z" fill="#FFC727"/>
<path id="Vector_30" opacity="0.1" d="M87.6702 252.36H104.18V254.06H87.6702V252.36Z" fill="black"/>
<path id="Vector_31" d="M68.1002 245.43C69.2422 247.2 70.9651 248.516 72.9726 249.153C74.9801 249.79 77.1468 249.708 79.1002 248.92C79.9205 248.603 80.7022 248.194 81.4302 247.7L79.3302 244.59C78.9389 244.86 78.5238 245.095 78.0902 245.29C76.892 245.843 75.5344 245.946 74.2668 245.578C72.9991 245.211 71.9067 244.398 71.1902 243.29C68.9202 240.11 68.1102 232.84 70.4002 230.05C70.5602 229.84 71.2202 229.52 73.8802 230.05C74.3702 230.16 74.8802 230.29 75.5502 230.46C76.0387 230.628 76.5457 230.735 77.0602 230.78L77.1302 228.92L77.3102 227.05C77.1402 227.05 76.8702 226.95 76.5202 226.85C75.2937 226.488 74.0395 226.227 72.7702 226.07C70.8202 225.87 68.7702 226.07 67.5102 227.65C63.7302 232.22 65.2402 241.44 68.1002 245.43Z" fill="#FFC727"/>
<path id="Vector_32" opacity="0.1" d="M79.2801 244.59C78.8888 244.86 78.4738 245.095 78.0401 245.29L79.0401 248.92C79.8605 248.603 80.6421 248.194 81.3701 247.7L79.2801 244.59Z" fill="black"/>
<path id="Vector_33" opacity="0.1" d="M72.7202 226.08L73.8303 230.08C74.3203 230.19 74.8302 230.32 75.5002 230.49C75.9887 230.658 76.4958 230.765 77.0103 230.81L77.0803 228.95L77.2603 227.08C77.0903 227.08 76.8202 226.98 76.4702 226.88C75.2443 226.511 73.9901 226.243 72.7202 226.08V226.08Z" fill="black"/>
<path id="Vector_34" d="M117.89 221.22C117.89 221.22 117.74 222.45 117.46 224.38C117.41 224.68 117.37 225 117.32 225.38C117.12 226.71 116.87 228.28 116.57 229.98C116.57 230.07 116.57 230.17 116.52 230.27C116.08 232.7 115.52 235.35 114.93 237.84C114.93 237.96 114.86 238.06 114.84 238.17C114.67 238.84 114.49 239.5 114.31 240.17C114.13 240.84 113.93 241.42 113.74 242.02C113.387 243.107 112.97 244.172 112.49 245.21C109.06 252.29 104.28 253.08 101.32 253.08H90.5201C87.5201 253.08 82.7801 252.29 79.3701 245.21L79.0601 244.51C78.9901 244.34 78.9101 244.16 78.8401 243.98C78.7701 243.8 78.6901 243.62 78.6201 243.43C78.5501 243.24 78.5201 243.15 78.4701 243.03C77.7652 241.018 77.1743 238.968 76.7001 236.89C76.6721 236.805 76.6488 236.718 76.6301 236.63C76.6301 236.63 76.6301 236.57 76.6301 236.53C76.4201 235.65 76.2301 234.76 76.0501 233.88C75.7401 232.43 75.4701 231.01 75.2301 229.65C75.1301 229.03 75.0301 228.43 74.9201 227.84C74.9201 227.68 74.8701 227.52 74.8501 227.37C74.7801 226.98 74.7201 226.59 74.6701 226.23C74.6201 225.87 74.5601 225.52 74.5101 225.23C74.4601 224.94 74.4201 224.57 74.3701 224.23C74.1101 222.43 73.9801 221.31 73.9801 221.31L117.89 221.22Z" fill="#FFC727"/>
<path id="Vector_35" opacity="0.1" d="M116.52 230.22C116.08 232.65 115.52 235.3 114.93 237.79C114.66 237.79 114.39 237.88 114.11 237.95C112.791 238.257 111.537 238.799 110.41 239.55C109.298 240.311 108.26 241.175 107.31 242.13C106.387 243.069 105.383 243.926 104.31 244.69C103.236 245.41 101.983 245.819 100.69 245.87C100.062 245.849 99.4441 245.699 98.8763 245.429C98.3084 245.159 97.8025 244.775 97.39 244.3C96.4761 243.356 95.6525 242.328 94.93 241.23C94.1765 240.112 93.3654 239.034 92.5 238C92.0388 237.483 91.5262 237.014 90.97 236.6C90.6639 236.417 90.3466 236.253 90.02 236.11C89.6709 235.997 89.3069 235.936 88.94 235.93C88.2196 235.919 87.5091 236.099 86.88 236.45C86.2766 236.788 85.7187 237.201 85.22 237.68C84.22 238.59 83.36 239.68 82.47 240.62C81.6873 241.655 80.6259 242.446 79.41 242.9C79.1029 242.96 78.7871 242.96 78.48 242.9C77.7751 240.888 77.1842 238.838 76.71 236.76C77.06 236.67 77.42 236.58 77.77 236.46C79.0615 236.037 80.2623 235.376 81.31 234.51C82.3403 233.64 83.2907 232.679 84.15 231.64C84.9779 230.615 85.8948 229.664 86.89 228.8C87.8906 227.981 89.0986 227.455 90.38 227.28C91.0066 227.236 91.6353 227.324 92.226 227.538C92.8166 227.751 93.3561 228.086 93.81 228.52C94.8097 229.368 95.7272 230.309 96.55 231.33C97.43 232.33 98.3 233.33 99.29 234.33C99.7938 234.806 100.351 235.222 100.95 235.57C101.272 235.73 101.606 235.864 101.95 235.97C102.312 236.041 102.681 236.068 103.05 236.05C103.768 235.98 104.456 235.729 105.05 235.32C105.62 234.927 106.137 234.464 106.59 233.94C107.5 232.94 108.24 231.81 109.04 230.75C109.715 229.642 110.694 228.75 111.86 228.18C113.07 227.75 114.36 228.42 115.37 229.18C115.74 229.56 116.1 229.89 116.52 230.22Z" fill="black"/>
<path id="Vector_36" d="M116.57 229.93C116.57 230.02 116.57 230.12 116.52 230.22C116.13 229.89 115.74 229.56 115.34 229.22C114.34 228.42 113.04 227.75 111.83 228.22C110.664 228.79 109.686 229.682 109.01 230.79C108.21 231.85 107.47 232.97 106.56 233.98C106.108 234.504 105.59 234.968 105.02 235.36C104.426 235.769 103.738 236.02 103.02 236.09C102.652 236.108 102.282 236.081 101.92 236.01C101.576 235.904 101.242 235.77 100.92 235.61C100.321 235.262 99.7638 234.846 99.2601 234.37C98.2601 233.37 97.4001 232.37 96.5201 231.37C95.6972 230.349 94.7798 229.408 93.7801 228.56C93.3262 228.126 92.7867 227.791 92.196 227.578C91.6054 227.364 90.9766 227.277 90.3501 227.32C89.0687 227.495 87.8607 228.021 86.8601 228.84C85.8649 229.704 84.948 230.655 84.1201 231.68C83.2608 232.719 82.3103 233.68 81.2801 234.55C80.2323 235.416 79.0316 236.077 77.7401 236.5C77.3901 236.62 77.0301 236.71 76.6801 236.8C76.6521 236.715 76.6287 236.628 76.6101 236.54C76.9501 236.44 77.3001 236.33 77.6101 236.2C80.0666 235.212 82.1825 233.53 83.7001 231.36C84.5321 230.276 85.4628 229.272 86.4801 228.36C87.5596 227.48 88.8539 226.904 90.2301 226.69C90.9379 226.637 91.649 226.729 92.3197 226.962C92.9905 227.194 93.6065 227.561 94.1301 228.04C95.1707 228.906 96.1251 229.87 96.9801 230.92C97.8601 231.92 98.7001 232.92 99.6501 233.86C100.6 234.8 101.65 235.58 102.93 235.44C103.555 235.349 104.157 235.135 104.699 234.811C105.241 234.486 105.714 234.058 106.09 233.55C106.97 232.55 107.73 231.49 108.56 230.43C109.32 229.269 110.395 228.35 111.66 227.78C112.345 227.57 113.083 227.613 113.74 227.9C114.378 228.158 114.969 228.52 115.49 228.97C115.9 229.31 116.23 229.6 116.57 229.93Z" fill="white"/>
<path id="Vector_37" d="M114.93 237.79C114.93 237.91 114.86 238.01 114.84 238.12L114.19 238.26C111.648 239.011 109.375 240.476 107.64 242.48C106.733 243.472 105.728 244.37 104.64 245.16C103.479 245.939 102.127 246.385 100.73 246.45C100.022 246.442 99.3232 246.286 98.679 245.991C98.0348 245.697 97.4596 245.27 96.9902 244.74C96.0353 243.778 95.1747 242.726 94.4202 241.6C93.6869 240.496 92.8958 239.431 92.0502 238.41C91.2102 237.46 90.1802 236.5 88.9502 236.51C87.6755 236.578 86.479 237.146 85.6202 238.09C84.6202 238.97 83.7802 239.99 82.8502 240.96C81.9818 242.037 80.8278 242.848 79.5202 243.3C79.232 243.345 78.9384 243.345 78.6502 243.3C78.6502 243.17 78.5502 243.02 78.5002 242.9C78.8073 242.96 79.1231 242.96 79.4302 242.9C80.6461 242.446 81.7075 241.655 82.4902 240.62C83.3802 239.62 84.2402 238.62 85.2402 237.68C85.7389 237.201 86.2967 236.788 86.9002 236.45C87.5292 236.099 88.2397 235.919 88.9602 235.93C89.3271 235.936 89.6911 235.997 90.0402 236.11C90.3668 236.253 90.6841 236.417 90.9902 236.6C91.5464 237.014 92.059 237.483 92.5202 238C93.3856 239.034 94.1967 240.112 94.9502 241.23C95.6727 242.328 96.4963 243.356 97.4102 244.3C97.8226 244.775 98.3286 245.159 98.8964 245.429C99.4642 245.699 100.082 245.849 100.71 245.87C102.003 245.819 103.256 245.41 104.33 244.69C105.403 243.926 106.407 243.069 107.33 242.13C108.281 241.175 109.318 240.311 110.43 239.55C111.552 238.82 112.795 238.295 114.1 238C114.39 237.88 114.66 237.83 114.93 237.79Z" fill="white"/>
</g>
<g id="Character">
<path id="Vector_38" d="M289.66 340.24L366.02 401.81H361.72L273.53 340.24H289.66Z" fill="#C7C7C7"/>
<path id="Vector_39" d="M282.49 340.24L320.22 401.81H315.92L269.67 340.24H282.49Z" fill="#C7C7C7"/>
<path id="Vector_40" d="M263.99 340.24L226.26 401.81H230.56L276.81 340.24H263.99Z" fill="#C7C7C7"/>
<path id="Vector_41" d="M257.4 340.24L181.05 401.81H185.35L273.53 340.24H257.4Z" fill="#C7C7C7"/>
<path id="Vector_42" d="M129.97 317.65V299.64L234.82 295.34L290.2 147.47H417.1L372.2 317.65L264.93 347.77H258.21L129.97 317.65Z" fill="#455A64"/>
<path id="Vector_43" d="M417.1 147.47H402.58L355.8 302.6L260.9 329.48L129.97 299.64V317.65L258.21 347.77H264.93L372.2 317.65L417.1 147.47Z" fill="#37474F"/>
<path id="Vector_44" d="M52.85 401.19C56.24 401.27 143.98 374.14 146.67 371C146.96 370.65 145.59 357.66 143.33 347.34C143.22 346.85 174.49 305.88 174.49 305.88L117.96 283.88L90.91 339.88L83.91 354.45C83.91 354.45 54.64 383.87 52.05 387.64C49.46 391.41 49.47 401.11 52.85 401.19Z" fill="#EBEBEB"/>
<path id="Vector_45" d="M50.3802 401.68C53.9102 401.78 145.51 373.81 148.38 370.54C149.46 369.3 147.82 363.64 143.38 347.34L83.3202 354.57C83.3202 354.57 52.3202 383.68 49.6202 387.57C46.9202 391.46 46.8602 401.59 50.3802 401.68Z" fill="#FFD796"/>
<path id="Vector_46" d="M50.5802 397.62C65.8202 392.55 127.77 373.56 143.22 369.72C143.34 369.72 143.37 369.72 143.22 369.81C128.22 375.16 66.1202 393.65 50.6302 397.87C50.3302 398 50.2602 397.72 50.5802 397.62Z" fill="#263238"/>
<path id="Vector_47" d="M54.4502 382.51C56.1434 381.943 57.9357 381.734 59.7139 381.896C61.492 382.058 63.2172 382.587 64.7802 383.45C67.605 384.987 69.7315 387.55 70.7202 390.61C70.7202 390.7 70.5802 390.75 70.5302 390.66C69.0874 387.775 66.7481 385.436 63.8632 383.994C60.9784 382.552 57.7036 382.083 54.5302 382.66C54.5132 382.659 54.4968 382.653 54.4825 382.644C54.4682 382.635 54.4565 382.622 54.4485 382.607C54.4404 382.592 54.4364 382.575 54.4367 382.558C54.437 382.541 54.4417 382.525 54.4502 382.51V382.51Z" fill="#263238"/>
<path id="Vector_48" d="M77.1 360.63C83.22 358.63 91.01 358.63 96.36 362.53C96.57 362.68 96.36 362.97 96.14 362.93C89.9054 361.752 83.5625 361.246 77.22 361.42C77.1178 361.43 77.0155 361.401 76.9343 361.338C76.8531 361.275 76.7991 361.184 76.7837 361.082C76.7683 360.981 76.7925 360.877 76.8514 360.793C76.9103 360.709 76.9993 360.65 77.1 360.63V360.63Z" fill="#263238"/>
<path id="Vector_49" d="M72.8901 363.93C79.0101 361.93 86.8001 361.93 92.1501 365.82C92.3601 365.97 92.1501 366.27 91.9301 366.23C85.6955 365.052 79.3526 364.546 73.0101 364.72C72.9079 364.731 72.8056 364.701 72.7244 364.638C72.6431 364.575 72.5892 364.484 72.5738 364.382C72.5584 364.281 72.5826 364.177 72.6415 364.093C72.7004 364.009 72.7894 363.95 72.8901 363.93V363.93Z" fill="#263238"/>
<path id="Vector_50" d="M68.7101 367.23C74.8301 365.23 82.6201 365.23 87.9701 369.12C88.1801 369.27 87.9701 369.56 87.7501 369.53C81.5163 368.346 75.1734 367.833 68.8302 368C68.74 367.993 68.6548 367.956 68.5884 367.895C68.5219 367.834 68.4782 367.752 68.4643 367.663C68.4503 367.573 68.4671 367.482 68.5117 367.404C68.5564 367.325 68.6263 367.264 68.7101 367.23V367.23Z" fill="#263238"/>
<path id="Vector_51" d="M64.5302 370.53C70.6502 368.53 78.4402 368.53 83.7902 372.42C84.0002 372.57 83.7902 372.86 83.5702 372.82C77.3349 371.647 70.9926 371.141 64.6502 371.31C64.5555 371.309 64.4643 371.274 64.3928 371.212C64.3212 371.15 64.2741 371.064 64.2597 370.971C64.2453 370.877 64.2646 370.782 64.3141 370.701C64.3637 370.62 64.4402 370.56 64.5302 370.53V370.53Z" fill="#263238"/>
<path id="Vector_52" d="M65.42 346.26C67.74 342.73 72.42 344.05 75.17 346.15C79.7967 349.827 83.3762 354.655 85.55 360.15C85.5618 360.174 85.5672 360.201 85.566 360.228C85.5647 360.254 85.5568 360.28 85.5428 360.303C85.5289 360.326 85.5094 360.345 85.4862 360.359C85.463 360.372 85.4368 360.379 85.41 360.38C85.4205 360.503 85.402 360.626 85.3562 360.741C85.3104 360.855 85.2385 360.957 85.1462 361.039C85.0538 361.12 84.9437 361.179 84.8246 361.211C84.7055 361.242 84.5806 361.245 84.46 361.22C79.16 359.53 73.28 358.38 68.66 355.11C65.96 353.21 63.22 349.6 65.42 346.26ZM76.95 357C79.53 357.9 82.15 358.66 84.7 359.65C82.7565 356.864 80.6739 354.177 78.46 351.6C77.3682 350.37 76.1956 349.214 74.95 348.14C72.95 346.52 65.39 343.22 66.82 350.09C67.61 353.9 73.87 356 76.95 357Z" fill="#263238"/>
<path id="Vector_53" d="M101.52 357.78C96.4201 360.23 90.4301 360.39 84.9201 361.18C84.7945 361.188 84.6688 361.166 84.5537 361.116C84.4386 361.065 84.3374 360.987 84.2588 360.889C84.1802 360.791 84.1265 360.675 84.1024 360.552C84.0782 360.428 84.0843 360.301 84.12 360.18C84.095 360.173 84.072 360.16 84.0527 360.143C84.0333 360.125 84.0183 360.104 84.0086 360.08C83.9989 360.055 83.995 360.029 83.9969 360.003C83.9989 359.977 84.0068 359.952 84.0201 359.93C87.0747 354.866 91.4059 350.694 96.5801 347.83C99.5801 346.22 104.47 345.69 106.18 349.56C107.79 353.23 104.49 356.34 101.52 357.78ZM104.16 353.15C106.71 346.6 98.6701 348.59 96.4701 349.87C95.0765 350.725 93.7403 351.671 92.4701 352.7C89.7801 354.81 87.4701 357.25 84.9801 359.61C87.6601 359.05 90.3701 358.73 93.0701 358.28C96.2401 357.74 102.75 356.75 104.16 353.15Z" fill="#263238"/>
<path id="Vector_54" d="M88.0502 342.54L150.37 351.75C150.37 351.75 184.38 290 198.1 274.64C198.875 273.759 199.718 272.94 200.62 272.19V272.19C202.041 271.548 203.565 271.165 205.12 271.06V271.06C223.55 268.82 285.57 274.84 328.42 272.06L308.42 245.3L299.55 233.44C251.27 227.93 192.02 208.19 165.29 221.6C136.32 236.15 88.0502 342.54 88.0502 342.54Z" fill="#263238"/>
<path id="Vector_55" d="M95.8601 332C106.46 333.36 103.43 332.83 114.01 334.3C119.19 335.03 145.21 338.6 149.93 340.07C150.03 340.07 150.01 340.28 149.93 340.28C144.99 340.28 119.05 336.19 113.88 335.37C103.33 333.7 106.38 334.07 95.8801 332.29C95.8584 332.297 95.8353 332.299 95.8127 332.296C95.7901 332.293 95.7684 332.285 95.7495 332.272C95.7305 332.259 95.7147 332.242 95.7032 332.223C95.6918 332.203 95.6851 332.181 95.6835 332.158C95.6819 332.135 95.6856 332.112 95.6942 332.091C95.7028 332.07 95.7161 332.051 95.7332 332.036C95.7502 332.02 95.7705 332.009 95.7925 332.003C95.8145 331.997 95.8376 331.996 95.8601 332V332Z" fill="#37474F"/>
<path id="Vector_56" d="M150.05 339.16C157.1 327.37 189.21 269.16 195.6 266.88C201.42 264.8 317.81 267.22 319.53 267.23C319.65 267.23 319.66 267.42 319.53 267.42C305.75 267.24 199.37 266.86 196.33 268.06C190.03 270.56 151.63 338.06 150.68 339.48C150.44 339.86 149.81 339.57 150.05 339.16Z" fill="#37474F"/>
<path id="Vector_57" d="M361.05 247.7C361.05 247.7 364.73 282.79 346.92 300.25C325.61 321.14 184.92 315.86 163.17 308.82C141.42 301.78 140.7 266.6 164.52 258.45C187.18 250.7 287.68 246.25 290.1 245.3C292.52 244.35 299.45 233.23 299.45 233.23L361.05 247.7Z" fill="#263238"/>
<path id="Vector_58" d="M331.29 246.71C331.29 246.54 331.58 246.59 331.58 246.71C331.563 251.28 333.165 255.708 336.1 259.21C339.44 263.06 344.36 265.21 348.82 267.48C349.25 267.69 348.92 268.36 348.48 268.23C345.737 267.392 343.095 266.255 340.6 264.84C338.313 263.615 336.299 261.937 334.68 259.91C333.232 258.064 332.183 255.938 331.599 253.666C331.015 251.394 330.91 249.025 331.29 246.71V246.71Z" fill="#37474F"/>
<path id="Vector_59" d="M291.02 243.11C292.02 241.84 293.1 240.63 294.14 239.39C296.59 236.47 299.06 233.54 301.63 230.72C301.88 230.45 302.36 230.83 302.13 231.12C300.4 233.39 298.56 235.58 296.76 237.79C295.83 238.92 294.91 240.05 293.97 241.18C292.996 242.191 292.126 243.297 291.37 244.48C290.7 245.73 291.58 246.81 292.88 246.95C294.036 246.977 295.16 246.562 296.02 245.79C298.02 244.24 299.65 242.01 301.34 240.11C302.34 238.94 303.4 237.78 304.45 236.63C305.5 235.48 306.76 234.25 307.87 233.03C307.888 233.018 307.909 233.011 307.931 233.012C307.953 233.012 307.973 233.02 307.99 233.034C308.007 233.047 308.019 233.066 308.025 233.087C308.03 233.108 308.029 233.13 308.02 233.15C307.02 234.48 306.15 235.88 305.17 237.21C304.19 238.54 303.17 239.87 302.17 241.21C301.17 242.55 300.23 243.66 299.17 244.86C298.324 245.912 297.31 246.817 296.17 247.54C294.31 248.63 291.07 248.87 290.08 246.46C289.92 245.869 289.922 245.245 290.088 244.655C290.253 244.065 290.575 243.531 291.02 243.11Z" fill="#37474F"/>
<path id="Vector_60" d="M166.16 309C173.66 309.14 181.16 309.58 188.67 309.74C196.18 309.9 203.56 309.94 211 309.87C225.947 309.73 240.887 309.147 255.82 308.12C270.9 307.12 287.16 305.58 302.14 303.51C309.3 302.51 316.57 301.69 323.65 300.16C330.028 298.959 335.928 295.953 340.65 291.5C350.31 282 354.1 268.21 355.63 255C355.84 253.23 356.01 251.45 356.16 249.67C356.16 249.646 356.17 249.623 356.186 249.606C356.203 249.589 356.226 249.58 356.25 249.58C356.274 249.58 356.297 249.589 356.314 249.606C356.331 249.623 356.34 249.646 356.34 249.67C355.46 263.22 353.34 277.35 344.83 288.24C341.232 292.986 336.444 296.698 330.95 299C324.25 301.68 316.8 302.31 309.72 303.27C294.72 305.27 278.36 306.89 263.24 308.06C248.12 309.23 232.76 309.98 217.5 310.2C202.24 310.42 186.97 310.2 171.73 309.46C169.87 309.37 168.01 309.26 166.15 309.1C166.142 309.084 166.138 309.066 166.14 309.048C166.142 309.031 166.149 309.014 166.16 309V309Z" fill="#37474F"/>
<path id="Vector_61" d="M146.1 276.15C147.534 270.271 151.12 265.144 156.15 261.78C161.55 258.09 168.01 256.41 174.41 255.48C181.64 254.48 188.97 253.89 196.25 253.18C211.183 251.727 226.123 250.393 241.07 249.18C256.01 247.95 288.19 245.46 290 245.39C290.16 245.39 290.19 245.65 290 245.66C275.58 247.27 262.46 248.66 248 249.96C233.54 251.26 219 252.66 204.45 254.09C197.217 254.81 189.99 255.54 182.77 256.28C176.07 256.97 169.18 257.65 162.9 260.28C157.51 262.5 152.66 266.07 149.9 271.28C147.346 276.449 146.59 282.322 147.75 287.97C148.758 293.219 151.178 298.094 154.75 302.07C158.178 305.998 162.747 308.757 167.82 309.96C169.14 310.25 170.74 310.45 171.95 310.69C172.04 310.69 172.14 310.91 172.04 310.91C161.24 311.18 151.25 303.29 147.35 293.43C145.177 287.933 144.741 281.902 146.1 276.15V276.15Z" fill="#37474F"/>
<path id="Vector_62" d="M319.1 161.33C311.95 189.33 297.74 222.8 291.9 228.15C284.5 234.91 239.25 243.78 236.9 244.01C232.98 244.39 224.9 204.06 228.56 204.14C238.24 204.36 268.06 201.33 270.2 199.23C272.34 197.13 287.56 178.86 303.2 158.23C313.88 144.05 323.49 143.94 319.1 161.33Z" fill="#EB9481"/>
<path id="Vector_63" d="M240.49 242.33C239.84 242.64 230.49 247.05 224.8 248.56C220.53 249.69 208.15 252.61 206.44 248.03C205.27 244.9 212.35 242.33 217.32 240.4C219.93 239.4 223.19 236.75 222.47 235.06C221.2 232.12 214.47 234.88 210.01 237.33C201.41 242.05 189.9 250.65 184.83 246.22C182.91 244.55 185.25 241.64 188.65 238.82C183.17 242.07 177.35 244.71 175.14 242.94C173.88 241.94 173.85 240.58 174.6 239.06C172.92 239.56 171.45 239.42 170.45 238.31C168.74 236.43 169.66 233.74 171.65 231.01C171.321 230.965 171.007 230.842 170.735 230.653C170.462 230.464 170.238 230.212 170.08 229.92C166.5 224.17 185.49 208.35 191.96 206.98C210.96 202.98 230.91 204.25 230.91 204.25C238.2 210.37 240.51 242.32 240.49 242.33Z" fill="#EB9481"/>
<path id="Vector_64" d="M213.1 224.24C208.578 224.839 204.235 226.393 200.36 228.8C195.49 231.8 192.21 235.48 188.1 239.12C187.99 239.21 188.1 239.38 188.25 239.29C190.25 237.56 198.31 231.08 200.4 229.61C204.18 226.91 208.522 225.102 213.1 224.32V224.24Z" fill="#263238"/>
<path id="Vector_65" d="M209.75 216.13C204.75 217.37 199.62 218.62 194.95 220.86C189.83 223.32 185.78 227.42 181.79 231.36C179.403 233.727 177.07 236.15 174.79 238.63C174.69 238.73 174.79 238.9 174.93 238.8C178.983 234.72 183.15 230.767 187.43 226.94C191.38 223.363 195.999 220.603 201.02 218.82C203.9 217.82 206.84 217.01 209.78 216.22L209.75 216.13Z" fill="#263238"/>
<path id="Vector_66" d="M204.61 209C199.75 209.88 195.52 210.62 191.18 213.11C185.43 216.4 179.82 222.05 177.85 224.05C175.68 226.26 173.58 228.54 171.52 230.86C171.44 230.95 171.6 231.1 171.69 231C176.404 225.929 181.445 221.172 186.78 216.76C189.287 214.618 192.11 212.878 195.15 211.6C198.229 210.478 201.397 209.618 204.62 209.03C204.62 209.03 204.63 209 204.61 209Z" fill="#263238"/>
<path id="Vector_67" d="M231.65 201.44L245.24 248.44C245.24 248.44 285.36 238.02 292.82 230.34C300.28 222.66 314.7 182.42 319.1 162.86C323.5 143.3 313.57 143.55 304.1 155.72C294.63 167.89 271.29 197.38 270 198C268.71 198.62 231.65 201.44 231.65 201.44Z" fill="#BDF5AA"/>
<path id="Vector_68" d="M249.56 227.79C247.91 222.25 246.22 216.72 244.77 211.12C243.95 207.94 243.11 204.76 242.32 201.57C242.32 201.45 242.49 201.38 242.53 201.5C244.41 207 246.28 212.5 247.9 218.09C249.52 223.68 251.18 229.18 252.73 234.75C253.61 237.92 254.39 241.1 255.07 244.32C255.07 244.39 254.98 244.42 254.96 244.32C252.9 238.92 251.22 233.37 249.56 227.79Z" fill="#263238"/>
<path id="Vector_69" opacity="0.1" d="M251.03 246.84C262.41 243.63 287.13 236.17 292.83 230.32C300.29 222.63 314.7 182.42 319.13 162.86C321.25 153.47 320.06 148.64 317.2 147.52C316.889 147.668 316.585 147.832 316.29 148.01C301.57 168.25 271.01 216.57 251.03 246.84Z" fill="black"/>
<path id="Vector_70" d="M365.1 253.77C364.88 254 280.1 235.43 279.3 234.44C278.2 233.05 293.36 169.29 309.3 150.26C313.3 145.51 326.03 145.84 331.73 150.64C360 174.44 365.91 253 365.1 253.77Z" fill="#BDF5AA"/>
<path id="Vector_71" d="M338.36 155.2C355.27 168.2 399.83 220.79 390.52 233.27C381.21 245.75 317.36 241.59 298.73 236.22C293.18 234.63 307.4 199.37 313.32 197.62C318.24 196.17 345.89 203.62 346.38 202.07C346.95 200.26 340.82 188.6 330.95 167.3C319.56 142.74 330.89 149.45 338.36 155.2Z" fill="#FBD0C6"/>
<path id="Vector_72" d="M287.33 193.51C275.01 193.83 271.9 195.8 261.33 190.51C254.41 187.06 249.24 189.99 253.94 196.51C261.63 207.18 277.61 210.11 283.44 209.51L287.33 193.51Z" fill="#FBD0C6"/>
<path id="Vector_73" d="M321.24 199.81C321.24 199.81 306.46 194.54 293.3 193.58C284.2 192.91 264.23 193.67 248.72 216.06C245.04 221.37 243.56 231.55 252.72 225.06C259.23 220.45 261.96 215.56 266.23 213.57C266.23 213.57 265.89 226.73 271.35 230.21C276.128 233.255 281.117 235.955 286.28 238.29C286.926 237.444 287.514 236.555 288.04 235.63C288.04 235.63 293.45 238.4 302.39 236.03L321.24 199.81Z" fill="#FBD0C6"/>
<path id="Vector_74" d="M284.51 194.33C280.69 197.2 272.69 203.43 267.91 210.8C262.61 218.99 254.6 236.19 260.69 240.04C265.15 242.87 268.78 236.57 268.78 236.57C268.78 236.57 266.97 244.38 271.56 246.05C275.74 247.57 278.26 242.53 278.26 242.53C278.26 242.53 277.98 247.45 282.26 248.14C287.44 248.97 287.19 238.51 293.16 234.82C294.53 234 284.51 194.33 284.51 194.33Z" fill="#FBD0C6"/>
<path id="Vector_75" d="M277.5 215C274.35 218.3 269.1 227.61 268.69 236.43C268.69 236.63 268.82 236.75 268.87 236.56C270.882 229.045 273.808 221.804 277.58 215C277.58 215 277.53 214.93 277.5 215Z" fill="#263238"/>
<path id="Vector_76" d="M285.61 220.55C283.18 223.68 278.21 233.55 278.09 242.47C278.09 242.67 278.24 242.78 278.28 242.59C279.91 235 282.396 227.619 285.69 220.59C285.69 220.59 285.64 220.51 285.61 220.55Z" fill="#263238"/>
<path id="Vector_77" d="M266.22 213.49C262.49 215.29 260.22 217.64 257.32 220.49C255.886 221.907 254.373 223.242 252.79 224.49C251.34 225.62 249.2 227.31 247.27 226.24C246.2 225.64 245.98 224.24 246.02 223.15C246.231 221.479 246.707 219.852 247.43 218.33C247.43 218.27 247.36 218.22 247.33 218.28C246.62 219.677 246.051 221.141 245.63 222.65C245.367 223.682 245.423 224.77 245.79 225.77C246.72 227.84 249.32 227.7 251.03 226.77C252.041 226.199 252.992 225.529 253.87 224.77C254.73 224.07 255.56 223.32 256.36 222.56C258.02 220.99 259.59 219.32 261.23 217.74C262.828 216.232 264.521 214.829 266.3 213.54C266.37 213.56 266.29 213.45 266.22 213.49Z" fill="#263238"/>
<path id="Vector_78" d="M260.28 228.65C261.955 223.5 263.959 218.463 266.28 213.57C266.28 213.5 266.23 213.44 266.19 213.5C263.61 216.91 259.97 225.42 259.19 228.08C258.41 230.74 257.67 234.08 258.12 236.76C258.8 240.86 261.65 241.19 262.69 241.22C263.919 241.237 265.116 240.831 266.08 240.07C267.201 239.101 268.113 237.913 268.76 236.58C268.76 236.51 268.7 236.45 268.66 236.51C267.51 238.36 265.41 240.35 263.14 240.42C262.639 240.455 262.136 240.39 261.66 240.229C261.185 240.067 260.746 239.813 260.37 239.48C259.599 238.592 259.173 237.456 259.17 236.28C259.103 233.692 259.478 231.112 260.28 228.65V228.65Z" fill="#263238"/>
<path id="Vector_79" d="M321.24 198L308.41 242.65C308.41 242.65 388.24 247.2 392.66 232.71C397.08 218.22 358.52 170.71 342.52 157.71C323.98 142.59 322.99 148.94 329.02 164.06C335.34 179.88 346.22 202.48 346.22 202.48L321.24 198Z" fill="#BDF5AA"/>
<path id="Vector_80" d="M371.44 209.64C367.446 207.769 363.322 206.188 359.1 204.91C354.931 203.662 350.676 202.72 346.37 202.09C343.91 201.71 341.45 201.45 338.98 201.16C338.964 201.16 338.949 201.166 338.938 201.178C338.926 201.189 338.92 201.204 338.92 201.22C338.92 201.236 338.926 201.251 338.938 201.262C338.949 201.274 338.964 201.28 338.98 201.28C343.312 201.94 347.602 202.849 351.83 204C356.01 205.087 360.194 206.253 364.38 207.5C366.73 208.21 369.05 209.02 371.38 209.81C371.49 209.85 371.54 209.69 371.44 209.64Z" fill="#263238"/>
<path id="Vector_81" d="M321.43 197.89C321.83 197.89 344.03 201.39 344.77 201.6C344.63 201.29 339 190.73 338.17 189.18C338.08 189.03 338.01 188.87 337.93 188.72C337.42 188.05 336.93 187.39 336.43 186.72L334.61 184.07C334.61 184.07 334.61 184.01 334.61 184.07L336.54 186.64C336.84 187.04 337.12 187.44 337.41 187.85C336.84 186.75 336.3 185.65 335.75 184.54C334.87 182.78 334.06 180.99 333.24 179.2C333.24 179.14 333.31 179.1 333.33 179.2C334.99 182.28 336.75 185.3 338.41 188.38C340.07 191.46 346.41 202.75 346.41 202.74C346.41 202.73 321.87 198.4 321.41 198.29C321.357 198.287 321.307 198.264 321.272 198.224C321.236 198.185 321.218 198.133 321.22 198.08C321.223 198.027 321.246 197.977 321.286 197.941C321.325 197.906 321.377 197.887 321.43 197.89V197.89Z" fill="#263238"/>
<path id="Vector_82" d="M324.47 225.12C325.87 220.12 327.24 215.12 328.82 210.23C329.72 207.43 330.61 204.62 331.54 201.83C331.54 201.73 331.76 201.77 331.73 201.83C330.52 206.93 329.3 212 327.86 217C326.42 222 325.04 227 323.54 231.91C322.69 234.73 321.76 237.51 320.73 240.27C320.73 240.283 320.725 240.296 320.715 240.305C320.706 240.315 320.693 240.32 320.68 240.32C320.667 240.32 320.654 240.315 320.645 240.305C320.635 240.296 320.63 240.283 320.63 240.27C321.67 235.14 323.1 230.14 324.47 225.12Z" fill="#263238"/>
<path id="Vector_83" d="M307.53 243.5C308.09 242.1 308.75 240.1 309.37 238.73C309.54 238.36 309.8 238.39 309.68 238.73C309.29 239.99 309.02 241.37 308.68 242.65C309.8 242.65 310.92 242.65 312.03 242.75L315.91 242.91C318.43 243.01 320.91 243.09 323.49 243.13C328.617 243.23 333.74 243.23 338.86 243.13C349.123 242.944 359.37 242.233 369.56 241C372.41 240.63 375.26 240.21 378.09 239.7C380.885 239.249 383.656 238.655 386.39 237.92C386.47 237.92 386.5 238.02 386.39 238.05C384.074 238.955 381.69 239.674 379.26 240.2C376.72 240.753 374.16 241.23 371.58 241.63C366.46 242.42 361.29 242.93 356.12 243.31C345.86 244.05 335.583 244.36 325.29 244.24C322.41 244.24 319.53 244.173 316.65 244.04C315.2 243.99 313.74 243.94 312.29 243.86C310.84 243.78 307.43 243.74 307.53 243.5Z" fill="#263238"/>
<path id="Vector_84" d="M199.85 249.38H301.99V253.5H199.85V249.38Z" fill="#455A64"/>
<path id="Vector_85" d="M245.47 249.38H301.99V253.5H245.47V249.38Z" fill="#A6A6A6"/>
<path id="Vector_86" d="M247.19 253.5H157.67L145.02 192.7H234.54L247.19 253.5Z" fill="#A6A6A6"/>
<path id="Vector_87" d="M243.13 253.5H153.61L140.96 192.7H230.48L243.13 253.5Z" fill="#C7C7C7"/>
<path id="Vector_88" d="M198.01 224.45C198.116 225.207 198.056 225.977 197.835 226.709C197.613 227.44 197.236 228.114 196.728 228.685C196.22 229.256 195.594 229.709 194.893 230.014C194.192 230.319 193.434 230.468 192.67 230.45C191.032 230.415 189.462 229.788 188.251 228.685C187.039 227.582 186.268 226.078 186.08 224.45C185.974 223.693 186.034 222.923 186.255 222.191C186.477 221.46 186.854 220.786 187.362 220.215C187.87 219.644 188.496 219.191 189.197 218.886C189.898 218.581 190.656 218.432 191.42 218.45C193.057 218.487 194.626 219.115 195.837 220.218C197.048 221.32 197.82 222.823 198.01 224.45V224.45Z" fill="#EBEBEB"/>
<path id="Vector_89" d="M315.76 170.66C315.76 170.66 330.69 155.81 340.45 156.07L348.78 163.35C348.78 163.35 351.51 164.21 352.34 162.49C354.34 158.21 354.71 147.91 345.8 141.3C337.63 135.24 324.35 135.8 313.3 138.81C302.68 141.71 293.5 148.81 296.82 155.76C300.14 162.71 315.76 170.66 315.76 170.66Z" fill="#BDF5AA"/>
<path id="Vector_90" opacity="0.1" d="M314.67 167.4C314.67 167.4 302.39 158.79 301.09 153.63C299.79 148.47 310.09 143.45 316.76 141.46C327.1 138.38 334.1 139 339.96 144.45C345.82 149.9 314.67 167.4 314.67 167.4Z" fill="black"/>
<path id="Vector_91" d="M314.67 167.4C314.67 167.4 326.57 146.88 341.62 144.74L340.45 156.07C340.45 156.07 331.45 156.16 315.76 170.66L314.67 167.4Z" fill="#BDF5AA"/>
<path id="Vector_92" d="M344.51 156.24C341.765 156.039 339.009 156.431 336.43 157.39C333.86 158.28 331.401 159.461 329.1 160.91C326.761 162.328 324.519 163.902 322.39 165.62L319.26 168.29L316.26 171.11L315.92 171.42L315.54 171.23C312.714 169.806 309.988 168.192 307.38 166.4C306.066 165.521 304.807 164.562 303.61 163.53C302.403 162.51 301.295 161.378 300.3 160.15C302.598 162.271 305.124 164.133 307.83 165.7C309.17 166.51 310.54 167.26 311.92 167.99C313.3 168.72 314.68 169.44 316.09 170.09L315.37 170.21L318.37 167.31C319.37 166.38 320.48 165.47 321.55 164.57C322.62 163.67 323.77 162.87 324.92 162.08C326.07 161.29 327.25 160.52 328.5 159.87C330.936 158.472 333.54 157.39 336.25 156.65C336.93 156.46 337.62 156.33 338.31 156.19C339 156.05 339.69 155.99 340.39 155.95C341.77 155.81 343.163 155.908 344.51 156.24V156.24Z" fill="#263238"/>
<path id="Vector_93" d="M348.78 163.35C347.246 162.329 345.78 161.21 344.39 160C342.989 158.795 341.672 157.496 340.45 156.11C341.987 157.137 343.454 158.266 344.84 159.49C346.242 160.683 347.559 161.972 348.78 163.35Z" fill="#263238"/>
<path id="Vector_94" d="M320.77 163.71C321.656 168.424 322.138 173.204 322.21 178C322.28 181.34 321 193.31 317.29 192.88C313.58 192.45 319.62 184.72 320.68 178.4C321.74 172.08 320.05 167.46 319.82 163.68L320.77 163.71Z" fill="#4A6F3E"/>
<path id="Vector_95" d="M307.6 164.37C306.407 168.942 305.485 173.58 304.84 178.26C304.44 181.26 304.36 192.19 307.75 192.18C311.14 192.17 306.49 184.59 306.18 178.79C305.87 172.99 307.87 167.79 308.47 164.42L307.6 164.37Z" fill="#4A6F3E"/>
<path id="Vector_96" d="M313.42 165.1C317.29 164.85 324.51 156.76 326.97 150.34C327.13 149.9 325.92 145.67 324.69 140.46C323.95 137.3 323.21 133.76 322.76 130.46L302.86 138.25C304.593 142.193 305.836 146.334 306.56 150.58C306.616 151.031 306.633 151.486 306.61 151.94C306.605 152.017 306.605 152.093 306.61 152.17C306.54 154.81 307.35 165.5 313.42 165.1Z" fill="#FBD0C6"/>
<path id="Vector_97" d="M306.61 152C306.61 152.06 306.61 152.13 306.61 152.22C307.327 152.224 308.043 152.167 308.75 152.05C320.41 150.19 321.33 135.54 321.33 131.05L302.86 138.28C304.594 142.224 305.843 146.365 306.58 150.61C306.631 151.072 306.641 151.537 306.61 152Z" fill="#263238"/>
<path id="Vector_98" d="M318.71 104.81C322.88 111.28 324.94 132.81 321.19 138.81C315.76 147.49 303.98 151.51 295.87 144.32C288.01 137.32 285.87 109.26 290.28 103.52C296.84 95.05 312.55 95.25 318.71 104.81Z" fill="#FBD0C7"/>
<path id="Vector_99" d="M305.28 120.51C304.643 120.409 304.012 120.272 303.39 120.1C302.706 120.058 302.056 119.783 301.55 119.32C301.418 119.146 301.346 118.934 301.346 118.715C301.346 118.497 301.418 118.284 301.55 118.11C301.87 117.807 302.264 117.594 302.693 117.494C303.122 117.394 303.569 117.41 303.99 117.54C304.877 117.677 305.681 118.136 306.25 118.83C306.372 118.996 306.442 119.194 306.453 119.399C306.464 119.604 306.416 119.808 306.313 119.986C306.21 120.164 306.058 120.309 305.874 120.402C305.691 120.495 305.484 120.532 305.28 120.51V120.51Z" fill="#263238"/>
<path id="Vector_100" d="M290.69 122.5C291.299 122.296 291.897 122.059 292.48 121.79C293.146 121.623 293.739 121.244 294.17 120.71C294.272 120.515 294.307 120.291 294.269 120.074C294.231 119.857 294.122 119.659 293.96 119.51C293.596 119.265 293.173 119.122 292.736 119.096C292.298 119.07 291.861 119.161 291.47 119.36C290.622 119.643 289.909 120.231 289.47 121.01C289.381 121.192 289.347 121.396 289.37 121.597C289.394 121.799 289.475 121.989 289.603 122.146C289.731 122.303 289.902 122.419 290.095 122.482C290.287 122.545 290.494 122.551 290.69 122.5V122.5Z" fill="#263238"/>
<path id="Vector_101" d="M306.39 137.43C306.09 137.82 305.8 138.33 305.29 138.43C304.751 138.482 304.206 138.424 303.69 138.26C303.679 138.252 303.666 138.249 303.653 138.25C303.64 138.252 303.628 138.259 303.62 138.27C303.612 138.281 303.609 138.294 303.611 138.307C303.612 138.32 303.619 138.332 303.63 138.34C303.876 138.595 304.185 138.781 304.526 138.877C304.867 138.974 305.227 138.978 305.57 138.89C305.861 138.783 306.112 138.589 306.291 138.336C306.47 138.082 306.567 137.78 306.57 137.47C306.55 137.39 306.44 137.38 306.39 137.43Z" fill="#263238"/>
<path id="Vector_102" d="M304.32 133.3C304.025 133.917 303.607 134.467 303.091 134.916C302.575 135.365 301.972 135.703 301.32 135.91C300.751 136.095 300.158 136.196 299.56 136.21C299.447 136.225 299.333 136.225 299.22 136.21H298.89C298.811 136.205 298.735 136.174 298.676 136.121C298.616 136.069 298.575 135.998 298.56 135.92V135.92C298.555 135.87 298.555 135.82 298.56 135.77V135.77V135.65C298.39 134.54 298.28 132.83 298.28 132.83C297.9 133.09 295.95 134.28 295.91 133.7C295.58 128.85 295.22 123.46 295.91 118.57C295.918 118.54 295.936 118.514 295.96 118.496C295.985 118.477 296.014 118.467 296.045 118.467C296.076 118.467 296.106 118.477 296.13 118.496C296.154 118.514 296.172 118.54 296.18 118.57C296.67 123.22 296.35 127.92 296.78 132.57C297.471 132.131 298.222 131.794 299.01 131.57C299.17 131.57 299.16 134.87 299.28 135.36C301.18 135.36 302.52 134.62 304.17 133.13C304.27 133.09 304.4 133.18 304.32 133.3Z" fill="#263238"/>
<path id="Vector_103" d="M300.1 135.57C300.814 136.284 301.699 136.803 302.67 137.08C303.204 137.216 303.767 137.181 304.28 136.98C305.39 136.53 305.28 135.46 304.96 134.59C304.781 134.122 304.55 133.676 304.27 133.26C303.162 134.456 301.701 135.265 300.1 135.57V135.57Z" fill="#263238"/>
<path id="Vector_104" d="M302.71 137.08C303.244 137.216 303.807 137.181 304.32 136.98C305.43 136.53 305.32 135.46 305 134.59C304.394 134.687 303.838 134.986 303.423 135.438C303.007 135.889 302.756 136.468 302.71 137.08Z" fill="#FF9ABB"/>
<path id="Vector_105" d="M302.44 124.45C302.44 124.39 302.57 124.45 302.57 124.56C302.75 125.99 303.2 127.56 304.57 127.88V127.96C302.96 128 302.39 125.84 302.44 124.45Z" fill="#263238"/>
<path id="Vector_106" d="M303.48 122.75C305.75 122.21 306.66 126.75 304.56 127.29C302.46 127.83 301.58 123.21 303.48 122.75Z" fill="#263238"/>
<path id="Vector_107" d="M294.1 125.55C294.1 125.49 294 125.64 294.01 125.69C294.35 127.1 294.5 128.77 293.32 129.51C293.32 129.51 293.32 129.6 293.32 129.58C294.85 129 294.62 126.82 294.1 125.55Z" fill="#263238"/>
<path id="Vector_108" d="M292.51 124.33C290.19 124.63 290.96 129.23 293.1 128.96C295.24 128.69 294.45 124.08 292.51 124.33Z" fill="#263238"/>
<path id="Vector_109" d="M316.66 118.67C313.66 114.98 313.56 107.05 310.77 105.92C304.77 103.48 298.25 114.71 291.87 117.07C285.68 119.36 282.16 116.12 281.45 110.68C280.74 105.24 283.79 100.31 290.38 96.74C297.19 93.06 304.81 93.58 309.21 94.57C309.21 94.57 306.73 92.62 307.03 91.63C307.33 90.64 311.25 91.95 312.55 92.63C313.555 93.282 314.436 94.1083 315.15 95.07C315.994 94.5051 316.913 94.0608 317.88 93.75C319.3 93.3516 320.815 93.4648 322.16 94.07C322.4 94.4 320.25 95.5 318.7 96.16C318.7 96.16 323.07 99.01 324.22 102.38C325.37 105.75 325.93 123.59 324.74 124.21C323.21 125 317.86 120.17 316.66 118.67Z" fill="#455A64"/>
<path id="Vector_110" d="M317.93 96C317.87 96 317.82 96.1 317.93 96.12C319.918 96.8022 321.677 98.0245 323.01 99.65C324.462 101.679 325.349 104.056 325.58 106.54C326.2 111.3 325.49 116.07 325.1 120.82C325.1 120.96 325.32 120.98 325.34 120.82C326.08 115.82 326.73 110.45 325.87 105.43C325.1 101.15 322.5 96.87 317.93 96Z" fill="#455A64"/>
<path id="Vector_111" d="M310.42 104.2C308.457 104.658 306.596 105.475 304.93 106.61C303.43 107.818 302.086 109.209 300.93 110.75C298.1 113.94 294.77 116.83 290.61 118.06C290.61 118.06 290.61 118.15 290.61 118.14C294.425 117.107 297.847 114.963 300.44 111.98C301.687 110.421 303.022 108.935 304.44 107.53C306.265 106.212 308.291 105.199 310.44 104.53C310.472 104.514 310.498 104.489 310.515 104.459C310.533 104.428 310.541 104.393 310.539 104.358C310.537 104.323 310.524 104.29 310.503 104.261C310.482 104.233 310.453 104.212 310.42 104.2V104.2Z" fill="#455A64"/>
<path id="Vector_112" d="M304.74 94.19C301.773 93.8514 298.773 93.9389 295.83 94.45C292.991 94.8476 290.243 95.7376 287.71 97.08C283.38 99.5 280.22 103.96 280.85 109.08C281.144 111.716 282.405 114.15 284.39 115.91C284.419 115.927 284.452 115.934 284.485 115.929C284.518 115.924 284.548 115.907 284.57 115.882C284.592 115.857 284.604 115.824 284.604 115.791C284.604 115.758 284.592 115.725 284.57 115.7C282.871 114.045 281.752 111.885 281.381 109.542C281.01 107.199 281.406 104.799 282.51 102.7C285.09 98.06 290.29 95.89 295.27 94.93C298.396 94.3837 301.569 94.1659 304.74 94.28C304.74 94.28 304.76 94.2 304.74 94.19Z" fill="#455A64"/>
<path id="Vector_113" d="M307.55 131.57C308.761 131.235 309.853 130.566 310.702 129.641C311.552 128.715 312.124 127.57 312.355 126.335C312.585 125.1 312.464 123.825 312.006 122.655C311.548 121.486 310.77 120.468 309.762 119.719C308.754 118.969 307.556 118.518 306.304 118.416C305.052 118.314 303.796 118.565 302.68 119.141C301.564 119.718 300.632 120.596 299.99 121.676C299.348 122.756 299.023 123.994 299.05 125.25V125.25C299.092 127.027 299.836 128.715 301.12 129.945C302.404 131.174 304.123 131.845 305.9 131.81C306.458 131.797 307.012 131.717 307.55 131.57V131.57ZM304.2 119.51C304.666 119.378 305.146 119.307 305.63 119.3C307.105 119.269 308.537 119.802 309.633 120.789C310.73 121.777 311.408 123.145 311.531 124.616C311.654 126.086 311.212 127.548 310.294 128.704C309.377 129.86 308.054 130.623 306.594 130.837C305.134 131.052 303.647 130.701 302.436 129.858C301.226 129.015 300.382 127.742 300.077 126.298C299.771 124.854 300.028 123.349 300.794 122.087C301.56 120.826 302.778 119.905 304.2 119.51V119.51Z" fill="#37474F"/>
<path id="Vector_114" d="M292.33 133.85C294.8 133.17 296.33 130.01 295.81 126.55C295.579 124.893 294.834 123.351 293.68 122.14C293.219 121.588 292.623 121.165 291.95 120.912C291.277 120.659 290.55 120.584 289.839 120.695C289.129 120.805 288.459 121.098 287.895 121.544C287.331 121.99 286.892 122.574 286.62 123.24C285.892 124.746 285.654 126.442 285.94 128.09C286.51 131.74 289.18 134.37 291.94 133.95L292.33 133.85ZM289.65 121.65L289.98 121.58C290.55 121.52 291.125 121.596 291.659 121.803C292.193 122.01 292.67 122.342 293.05 122.77C294.066 123.85 294.72 125.22 294.92 126.69C295.41 129.86 294 132.69 291.76 133.06C289.52 133.43 287.32 131.12 286.82 127.95C286.564 126.489 286.774 124.985 287.42 123.65C287.63 123.179 287.937 122.757 288.322 122.412C288.706 122.067 289.159 121.808 289.65 121.65V121.65Z" fill="#37474F"/>
<path id="Vector_115" d="M299.39 126L299.86 125.23C298.72 124.54 296.22 123.77 294.86 125.75L295.6 126.25C296.82 124.47 299.29 125.92 299.39 126Z" fill="#37474F"/>
<path id="Vector_116" d="M329.18 123.1L329.91 122.57C329.66 122.23 327.44 119.27 325.41 119.26C323.38 119.25 311.81 122.21 311.31 122.34L311.53 123.2C314.89 122.35 323.94 120.14 325.4 120.2C326.86 120.26 328.58 122.28 329.18 123.1Z" fill="#37474F"/>
<path id="Vector_117" d="M319.1 122.73C319.1 122.73 322.01 114.86 325.47 115.73C328.93 116.6 327.95 127.16 324.75 129.4C324.36 129.716 323.909 129.951 323.426 130.089C322.942 130.227 322.436 130.266 321.937 130.203C321.439 130.141 320.958 129.978 320.523 129.725C320.089 129.471 319.71 129.133 319.41 128.73L319.1 122.73Z" fill="#FBD0C6"/>
<path id="Vector_118" d="M325.1 118.75C325.16 118.75 325.19 118.75 325.1 118.84C322.87 120.49 322.17 123.14 321.88 125.77C321.959 125.484 322.099 125.218 322.291 124.991C322.482 124.764 322.721 124.582 322.99 124.456C323.259 124.331 323.553 124.265 323.85 124.264C324.146 124.263 324.44 124.326 324.71 124.45C324.79 124.45 324.71 124.59 324.71 124.6C324.236 124.57 323.764 124.689 323.361 124.94C322.958 125.191 322.643 125.561 322.46 126C322.162 126.734 321.944 127.499 321.81 128.28C321.75 128.53 321.32 128.52 321.34 128.28V128.22C320.45 125 321.75 120 325.1 118.75Z" fill="#263238"/>
</g>
</g>
<defs>
<clipPath id="clip0_102_136">
<rect width="417.1" height="402.3" fill="white" transform="matrix(-1 0 0 1 417.1 0)"/>
</clipPath>
</defs>
</svg>
